<?xml version="1.0" encoding="us-ascii" standalone="no"?><svg xmlns="http://www.w3.org/2000/svg" xmlns:xlink="http://www.w3.org/1999/xlink" contentStyleType="text/css" height="423.9583px" preserveAspectRatio="none" style="width:938px;height:423px;" version="1.1" viewBox="0 0 938 423" width="938.5417px" zoomAndPan="magnify"><defs><linearGradient id="gxxr5ynavjjq40" x1="50%" x2="50%" y1="0%" y2="100%"><stop offset="0%" stop-color="#59B6EC"/><stop offset="100%" stop-color="#2FA4E7"/></linearGradient></defs><g><!--cluster LinuxONE Pervasive Encryption--><g id="cluster_LinuxONE Pervasive Encryption"><path d="M20.8333,156.25 L255.2083,156.25 A6.25,6.25 0 0 1 259.375,160.4167 L266.6667,187.4674 L451.0417,187.4674 A4.1667,4.1667 0 0 1 455.2083,191.6341 L455.2083,275 A4.1667,4.1667 0 0 1 451.0417,279.1667 L20.8333,279.1667 A4.1667,4.1667 0 0 1 16.6667,275 L16.6667,160.4167 A4.1667,4.1667 0 0 1 20.8333,156.25 " fill="none" style="stroke:#59B6EC;stroke-width:2.0833333333333335;"/><line style="stroke:#59B6EC;stroke-width:2.0833333333333335;" x1="16.6667" x2="266.6667" y1="187.4674" y2="187.4674"/><text fill="#2FA4E7" font-family="Verdana" font-size="12.5" font-weight="bold" lengthAdjust="spacing" textLength="226.0417" x="26.0417" y="175.1444">LinuxONE Pervasive Encryption</text></g><!--cluster Hyper Protect Digital Asset Platform--><g id="cluster_Hyper Protect Digital Asset Platform"><path d="M637.5,16.6667 L912.5,16.6667 A6.25,6.25 0 0 1 916.6667,20.8333 L923.9583,47.8841 L921.875,47.8841 A4.1667,4.1667 0 0 1 926.0417,52.0508 L926.0417,407.2917 A4.1667,4.1667 0 0 1 921.875,411.4583 L637.5,411.4583 A4.1667,4.1667 0 0 1 633.3333,407.2917 L633.3333,20.8333 A4.1667,4.1667 0 0 1 637.5,16.6667 " fill="none" style="stroke:#59B6EC;stroke-width:2.0833333333333335;"/><line style="stroke:#59B6EC;stroke-width:2.0833333333333335;" x1="633.3333" x2="923.9583" y1="47.8841" y2="47.8841"/><text fill="#2FA4E7" font-family="Verdana" font-size="12.5" font-weight="bold" lengthAdjust="spacing" textLength="266.6667" x="642.7083" y="35.5611">Hyper Protect Digital Asset Platform</text></g><!--entity L1--><g id="elem_L1"><rect fill="url(#gxxr5ynavjjq40)" height="56.2174" rx="4.1667" ry="4.1667" style="stroke:#2FA4E7;stroke-width:1.0416666666666667;" width="111.4583" x="33.3333" y="200.0208"/><rect fill="url(#gxxr5ynavjjq40)" height="10.4167" style="stroke:#2FA4E7;stroke-width:1.0416666666666667;" width="15.625" x="123.9583" y="205.2292"/><rect fill="url(#gxxr5ynavjjq40)" height="2.0833" style="stroke:#2FA4E7;stroke-width:1.0416666666666667;" width="4.1667" x="121.875" y="207.3125"/><rect fill="url(#gxxr5ynavjjq40)" height="2.0833" style="stroke:#2FA4E7;stroke-width:1.0416666666666667;" width="4.1667" x="121.875" y="211.4792"/><text fill="#FFFFFF" font-family="Verdana" font-size="12.5" lengthAdjust="spacing" textLength="59.375" x="54.1667" y="237.6653">LinuxONE</text></g><!--entity PE--><g id="elem_PE"><rect fill="url(#gxxr5ynavjjq40)" height="56.2174" rx="4.1667" ry="4.1667" style="stroke:#2FA4E7;stroke-width:1.0416666666666667;" width="186.4583" x="252.0833" y="200.0208"/><rect fill="url(#gxxr5ynavjjq40)" height="10.4167" style="stroke:#2FA4E7;stroke-width:1.0416666666666667;" width="15.625" x="417.7083" y="205.2292"/><rect fill="url(#gxxr5ynavjjq40)" height="2.0833" style="stroke:#2FA4E7;stroke-width:1.0416666666666667;" width="4.1667" x="415.625" y="207.3125"/><rect fill="url(#gxxr5ynavjjq40)" height="2.0833" style="stroke:#2FA4E7;stroke-width:1.0416666666666667;" width="4.1667" x="415.625" y="211.4792"/><text fill="#FFFFFF" font-family="Verdana" font-size="12.5" lengthAdjust="spacing" textLength="134.375" x="272.9167" y="237.6653">Pervasive Encryption</text></g><!--entity DS--><g id="elem_DS"><rect fill="url(#gxxr5ynavjjq40)" height="56.2174" rx="4.1667" ry="4.1667" style="stroke:#2FA4E7;stroke-width:1.0416666666666667;" width="139.5833" x="709.8958" y="60.4375"/><rect fill="url(#gxxr5ynavjjq40)" height="10.4167" style="stroke:#2FA4E7;stroke-width:1.0416666666666667;" width="15.625" x="828.6458" y="65.6458"/><rect fill="url(#gxxr5ynavjjq40)" height="2.0833" style="stroke:#2FA4E7;stroke-width:1.0416666666666667;" width="4.1667" x="826.5625" y="67.7292"/><rect fill="url(#gxxr5ynavjjq40)" height="2.0833" style="stroke:#2FA4E7;stroke-width:1.0416666666666667;" width="4.1667" x="826.5625" y="71.8958"/><text fill="#FFFFFF" font-family="Verdana" font-size="12.5" lengthAdjust="spacing" textLength="87.5" x="730.7292" y="98.0819">Data Storage</text></g><!--entity EKM--><g id="elem_EKM"><rect fill="url(#gxxr5ynavjjq40)" height="56.2174" rx="4.1667" ry="4.1667" style="stroke:#2FA4E7;stroke-width:1.0416666666666667;" width="236.4583" x="661.4583" y="153.1458"/><rect fill="url(#gxxr5ynavjjq40)" height="10.4167" style="stroke:#2FA4E7;stroke-width:1.0416666666666667;" width="15.625" x="877.0833" y="158.3542"/><rect fill="url(#gxxr5ynavjjq40)" height="2.0833" style="stroke:#2FA4E7;stroke-width:1.0416666666666667;" width="4.1667" x="875" y="160.4375"/><rect fill="url(#gxxr5ynavjjq40)" height="2.0833" style="stroke:#2FA4E7;stroke-width:1.0416666666666667;" width="4.1667" x="875" y="164.6042"/><text fill="#FFFFFF" font-family="Verdana" font-size="12.5" lengthAdjust="spacing" textLength="184.375" x="682.2917" y="190.7903">Encryption Key Management</text></g><!--entity SE--><g id="elem_SE"><rect fill="url(#gxxr5ynavjjq40)" height="56.2174" rx="4.1667" ry="4.1667" style="stroke:#2FA4E7;stroke-width:1.0416666666666667;" width="159.375" x="700" y="245.8542"/><rect fill="url(#gxxr5ynavjjq40)" height="10.4167" style="stroke:#2FA4E7;stroke-width:1.0416666666666667;" width="15.625" x="838.5417" y="251.0625"/><rect fill="url(#gxxr5ynavjjq40)" height="2.0833" style="stroke:#2FA4E7;stroke-width:1.0416666666666667;" width="4.1667" x="836.4583" y="253.1458"/><rect fill="url(#gxxr5ynavjjq40)" height="2.0833" style="stroke:#2FA4E7;stroke-width:1.0416666666666667;" width="4.1667" x="836.4583" y="257.3125"/><text fill="#FFFFFF" font-family="Verdana" font-size="12.5" lengthAdjust="spacing" textLength="107.2917" x="720.8333" y="283.4986">Secure Enclaves</text></g><!--entity CM--><g id="elem_CM"><rect fill="url(#gxxr5ynavjjq40)" height="56.2174" rx="4.1667" ry="4.1667" style="stroke:#2FA4E7;stroke-width:1.0416666666666667;" width="216.6667" x="671.3542" y="338.5625"/><rect fill="url(#gxxr5ynavjjq40)" height="10.4167" style="stroke:#2FA4E7;stroke-width:1.0416666666666667;" width="15.625" x="867.1875" y="343.7708"/><rect fill="url(#gxxr5ynavjjq40)" height="2.0833" style="stroke:#2FA4E7;stroke-width:1.0416666666666667;" width="4.1667" x="865.1042" y="345.8542"/><rect fill="url(#gxxr5ynavjjq40)" height="2.0833" style="stroke:#2FA4E7;stroke-width:1.0416666666666667;" width="4.1667" x="865.1042" y="350.0208"/><text fill="#FFFFFF" font-family="Verdana" font-size="12.5" lengthAdjust="spacing" textLength="164.5833" x="692.1875" y="376.2069">Compliance Management</text></g><!--link L1 to PE--><g id="link_L1_PE"><path d="M145.25,228.125 C176.3542,228.125 209.7708,228.125 245.4896,228.125 " fill="none" id="L1-to-PE" style="stroke:#2FA4E7;stroke-width:3.125;"/><polygon fill="#2FA4E7" points="251.7396,228.125,242.3646,223.9583,246.5313,228.125,242.3646,232.2917,251.7396,228.125" style="stroke:#2FA4E7;stroke-width:3.125;"/><text fill="#343A40" font-family="Verdana" font-size="12.5" lengthAdjust="spacing" textLength="32.2917" x="182.2917" y="219.9361">Uses</text></g><!--link PE to DS--><g id="link_PE_DS"><path d="M397.4583,199.5417 C419.8125,187.875 446.6458,174.9479 471.875,165.625 C551.3229,136.25 640.2815,115.5367 703.3128,102.7242 " fill="none" id="PE-to-DS" style="stroke:#2FA4E7;stroke-width:3.125;"/><polygon fill="#2FA4E7" points="709.4375,101.4792,699.4204,99.2635,704.3335,102.5167,701.0804,107.4298,709.4375,101.4792" style="stroke:#2FA4E7;stroke-width:3.125;"/><text fill="#343A40" font-family="Verdana" font-size="12.5" lengthAdjust="spacing" textLength="91.6667" x="498.4375" y="115.7694">Encrypts Data</text></g><!--link PE to EKM--><g id="link_PE_EKM"><path d="M438.8229,218.0938 C503.8125,211.0521 585.0573,202.2469 654.9739,194.6635 " fill="none" id="PE-to-EKM" style="stroke:#2FA4E7;stroke-width:3.125;"/><polygon fill="#2FA4E7" points="661.1875,193.9896,651.4179,190.8581,656.0095,194.5512,652.3165,199.1429,661.1875,193.9896" style="stroke:#2FA4E7;stroke-width:3.125;"/><text fill="#343A40" font-family="Verdana" font-size="12.5" lengthAdjust="spacing" textLength="92.7083" x="497.9167" y="191.8111">Manages Keys</text></g><!--link PE to SE--><g id="link_PE_SE"><path d="M438.8646,252.4271 C449.9271,254.7292 461.1146,256.7813 471.875,258.3333 C548.8021,269.4479 631.3237,272.8818 693.5112,273.8506 " fill="none" id="PE-to-SE" style="stroke:#2FA4E7;stroke-width:3.125;"/><polygon fill="#2FA4E7" points="699.7604,273.9479,690.4515,269.6357,694.5527,273.8668,690.3217,277.9681,699.7604,273.9479" style="stroke:#2FA4E7;stroke-width:3.125;"/><text fill="#343A40" font-family="Verdana" font-size="12.5" lengthAdjust="spacing" textLength="109.375" x="489.5833" y="250.1444">Ensures Security</text></g><!--link PE to CM--><g id="link_PE_CM"><path d="M383.9896,256.6042 C407.9688,273.4375 440.3542,293.8229 471.875,306.25 C535.5,331.3438 604.6284,345.4595 664.7013,354.2512 " fill="none" id="PE-to-CM" style="stroke:#2FA4E7;stroke-width:3.125;"/><polygon fill="#2FA4E7" points="670.8854,355.1563,662.2126,349.6759,665.732,354.402,661.0059,357.9214,670.8854,355.1563" style="stroke:#2FA4E7;stroke-width:3.125;"/><text fill="#343A40" font-family="Verdana" font-size="12.5" lengthAdjust="spacing" textLength="132.2917" x="478.125" y="298.0611">Ensures Compliance</text></g><!--SRC=[RO_1IiGm48RlUOgnzptirOCWRK3OhHQ23p34sMumJKeoBHRntPrMrsxLsp3_bt- -tF2PEW9BQV24GNawCN24vDepmujBPDd5e5IFzXLRWkBeml3szAYXeJHYTYE13ZPD_SmLyAu0REpw62ZmIXU06OxxRVX_Wu2DLXzN9n-cdX8qARBOGELQn-ZXFcTYQ3poAQRkp-KA6S5mJ5Anb5Pc2wmtuK0Jr1Y4x2HQQ7sejxWXEwJ5rED8UO6CtZAbZDvXiFIxhgpd7nttiDlToVVW5fupPINJlAYCBBvzH5JCBubeIFHLbcVFdpT6Bs-oI8d8BETukeHbVHMkLkeJ]--></g></svg>