<svg xmlns="http://www.w3.org/2000/svg" xmlns:xlink="http://www.w3.org/1999/xlink" width="250" zoomAndPan="magnify" viewBox="0 0 187.5 187.499992" height="250" preserveAspectRatio="xMidYMid meet" version="1.0"><path fill="#000000" d="M 93.476562 33.304688 C 93.839844 33.304688 94.207031 33.304688 94.574219 33.300781 C 100.515625 33.289062 106.273438 34.464844 111.484375 37.394531 C 111.96875 37.675781 111.96875 37.675781 112.152344 37.886719 C 112.148438 38.195312 112.148438 38.195312 112.058594 38.554688 L 112.015625 38.738281 C 111.96875 38.933594 111.921875 39.128906 111.875 39.328125 C 111.230469 42.027344 111.226562 44.878906 111.867188 47.585938 L 111.960938 47.777344 L 112 47.582031 C 112.460938 45.117188 112.460938 45.117188 112.914062 43.976562 L 112.996094 43.773438 C 113.433594 42.691406 113.972656 41.707031 114.628906 40.742188 L 114.773438 40.527344 C 114.910156 40.339844 115.050781 40.160156 115.199219 39.980469 L 115.328125 39.828125 C 117.242188 37.523438 119.648438 35.726562 122.476562 34.675781 L 122.816406 34.558594 L 123 34.496094 C 125.558594 33.625 128.554688 33.339844 131.226562 33.851562 C 131.539062 33.921875 131.84375 34 132.148438 34.082031 L 132.414062 34.152344 C 134.597656 34.726562 136.535156 35.644531 138.269531 37.101562 C 138.445312 37.246094 138.621094 37.390625 138.800781 37.53125 C 139.378906 37.988281 139.875 38.460938 140.339844 39.03125 L 140.566406 39.304688 C 142.027344 41.101562 143.128906 43.425781 143.523438 45.707031 L 143.578125 46.066406 L 143.605469 46.253906 C 144.15625 49.890625 143.628906 53.878906 142.316406 57.308594 C 141.574219 59.148438 141.574219 59.148438 141.101562 59.664062 C 140.933594 59.644531 140.933594 59.644531 140.71875 59.570312 C 140.304688 59.152344 139.972656 58.660156 139.679688 58.148438 C 139.078125 57.113281 138.207031 56.25 137.386719 55.386719 L 137.253906 55.246094 C 135.25 53.132812 132.550781 51.601562 129.863281 50.535156 L 129.769531 50.632812 L 129.890625 50.75 C 130.207031 51.0625 130.523438 51.378906 130.839844 51.695312 L 131.023438 51.875 C 131.316406 52.179688 131.59375 52.492188 131.863281 52.820312 L 132.101562 53.097656 C 132.714844 53.808594 133.300781 54.539062 133.863281 55.292969 L 134.085938 55.585938 C 135.578125 57.601562 136.886719 59.804688 137.867188 62.117188 C 137.957031 62.320312 138.046875 62.523438 138.136719 62.726562 C 140.117188 67.160156 141.054688 71.914062 141.035156 76.753906 L 141.035156 77.082031 C 141.019531 81.492188 140.21875 85.890625 138.339844 89.90625 L 138.21875 90.171875 C 137.703125 91.285156 137.167969 92.378906 136.53125 93.425781 L 136.378906 93.675781 C 135.273438 95.449219 134.058594 97.132812 132.625 98.65625 L 132.148438 98.464844 C 132.167969 98.027344 132.273438 97.726562 132.484375 97.335938 C 132.945312 96.453125 133.25 95.507812 133.574219 94.566406 C 133.65625 94.328125 133.742188 94.089844 133.832031 93.851562 C 134.199219 92.820312 134.402344 91.757812 134.609375 90.6875 L 134.652344 90.457031 C 135.28125 87.175781 135.0625 83.898438 134.453125 80.636719 L 134.40625 80.375 C 134.210938 79.324219 133.964844 78.351562 133.578125 77.355469 C 133.503906 77.136719 133.433594 76.917969 133.363281 76.699219 C 132.742188 74.957031 131.609375 73.347656 130.222656 72.128906 C 128.765625 70.910156 127.136719 70.359375 125.296875 69.972656 C 123.128906 69.707031 120.90625 70.101562 118.871094 70.882812 C 118.664062 70.976562 118.453125 71.074219 118.246094 71.171875 L 117.878906 71.34375 C 116.222656 72.128906 114.730469 73.101562 113.464844 74.4375 L 113.296875 74.597656 L 113.105469 74.597656 L 113.035156 74.761719 C 112.890625 75.019531 112.722656 75.171875 112.503906 75.371094 C 110.496094 77.335938 109.242188 80.058594 108.34375 82.679688 L 108.269531 82.894531 C 107.550781 84.984375 107.121094 87.152344 106.820312 89.335938 L 106.777344 89.644531 C 106.175781 94.007812 106.648438 98.492188 107.917969 102.703125 C 108.019531 103.039062 108.101562 103.34375 108.058594 103.699219 L 107.867188 103.886719 C 107.691406 103.878906 107.691406 103.878906 107.488281 103.792969 C 107.292969 103.613281 107.292969 103.613281 107.089844 103.375 L 106.859375 103.113281 C 106.570312 102.769531 106.285156 102.417969 106 102.066406 C 105.671875 101.675781 105.328125 101.300781 104.980469 100.929688 C 104.765625 100.695312 104.554688 100.457031 104.34375 100.21875 C 103.898438 99.722656 103.429688 99.253906 102.957031 98.78125 L 102.726562 98.546875 C 102.316406 98.140625 101.902344 97.75 101.464844 97.375 C 101.25 97.1875 101.039062 96.996094 100.828125 96.800781 C 100.460938 96.46875 100.078125 96.160156 99.683594 95.859375 C 99.421875 95.65625 99.167969 95.445312 98.917969 95.234375 L 99.007812 95.371094 C 99.105469 95.519531 99.207031 95.664062 99.300781 95.8125 C 99.429688 96.003906 99.5625 96.195312 99.691406 96.382812 C 100.449219 97.484375 101.113281 98.636719 101.773438 99.796875 L 101.921875 100.058594 C 103.261719 102.421875 104.40625 104.875 105.390625 107.40625 L 105.5 107.679688 C 107.410156 112.53125 109.089844 118.175781 108.324219 123.441406 C 107.917969 125.90625 106.871094 128.109375 105.296875 130.039062 L 105.058594 130.332031 C 104.15625 131.386719 103.050781 132.183594 101.867188 132.890625 L 101.632812 133.039062 C 101.433594 133.152344 101.433594 133.152344 101.109375 133.273438 C 100.875 133.191406 100.875 133.191406 100.632812 132.988281 C 100.472656 132.714844 100.359375 132.425781 100.238281 132.136719 C 99.855469 131.277344 99.417969 130.679688 98.726562 130.039062 C 98.667969 129.984375 98.613281 129.925781 98.550781 129.867188 C 97.617188 128.992188 96.421875 128.5625 95.207031 128.257812 C 93.960938 128 92.808594 128.152344 91.605469 128.539062 C 90.542969 128.917969 89.554688 129.503906 88.78125 130.339844 C 88.226562 131.007812 87.824219 131.714844 87.449219 132.492188 C 87.316406 132.761719 87.171875 133.019531 87.015625 133.273438 C 85.726562 132.890625 84.652344 132.078125 83.679688 131.179688 L 83.4375 130.964844 C 81.992188 129.617188 80.761719 127.671875 80.132812 125.800781 C 79.664062 124.238281 79.375 122.683594 79.371094 121.050781 L 79.371094 120.855469 C 79.375 119.738281 79.457031 118.65625 79.640625 117.554688 C 79.683594 117.296875 79.71875 117.039062 79.75 116.777344 C 80.585938 110.847656 83.175781 104.628906 86.253906 99.511719 C 86.335938 99.371094 86.417969 99.226562 86.503906 99.085938 C 87.023438 98.199219 87.574219 97.332031 88.152344 96.480469 L 88.332031 96.214844 C 88.636719 95.773438 88.945312 95.351562 89.300781 94.949219 L 89.050781 95.167969 C 88.769531 95.410156 88.480469 95.636719 88.1875 95.859375 C 87.398438 96.464844 86.679688 97.132812 85.957031 97.820312 C 85.734375 98.027344 85.507812 98.234375 85.28125 98.441406 C 84.734375 98.9375 84.226562 99.457031 83.734375 100.007812 C 83.511719 100.25 83.285156 100.480469 83.050781 100.707031 C 82.671875 101.082031 82.339844 101.476562 82.007812 101.890625 C 81.707031 102.261719 81.398438 102.621094 81.089844 102.984375 C 80.839844 103.28125 80.589844 103.582031 80.347656 103.886719 C 80.222656 103.859375 80.09375 103.828125 79.96875 103.792969 L 79.871094 103.699219 C 79.820312 103.035156 79.980469 102.496094 80.167969 101.867188 C 81.769531 96.242188 81.566406 90.457031 80.160156 84.820312 C 79.917969 83.867188 79.65625 82.929688 79.300781 82.015625 L 79.222656 81.808594 C 78.460938 79.835938 77.507812 77.941406 76.160156 76.308594 C 76.078125 76.210938 76 76.109375 75.921875 76.011719 C 75.71875 75.757812 75.511719 75.507812 75.300781 75.261719 L 75.128906 75.054688 C 74.746094 74.601562 74.332031 74.210938 73.875 73.835938 L 73.613281 73.621094 C 71.6875 72.09375 69.53125 70.84375 67.113281 70.316406 L 66.867188 70.261719 C 64.636719 69.761719 62.640625 69.839844 60.445312 70.507812 C 59.035156 71.003906 57.667969 71.957031 56.632812 73.042969 C 54.910156 75.121094 54.015625 77.617188 53.460938 80.226562 L 53.410156 80.453125 C 53.035156 82.222656 52.890625 83.957031 52.898438 85.769531 C 52.902344 86.054688 52.898438 86.34375 52.898438 86.632812 C 52.898438 88.289062 53.027344 89.886719 53.402344 91.507812 L 53.445312 91.691406 C 53.863281 93.511719 54.394531 95.378906 55.273438 97.035156 C 55.417969 97.308594 55.496094 97.519531 55.527344 97.832031 L 55.496094 98.085938 L 55.304688 98.277344 C 55.09375 98.332031 55.09375 98.332031 54.828125 98.277344 C 54.589844 98.066406 54.398438 97.820312 54.203125 97.570312 L 54.027344 97.347656 C 53.4375 96.601562 52.882812 95.832031 52.351562 95.042969 L 52.214844 94.839844 C 49.34375 90.578125 47.222656 85.292969 46.855469 80.140625 C 46.679688 77.117188 46.625 73.964844 47.210938 70.984375 L 47.25 70.785156 C 47.898438 67.488281 48.863281 64.164062 50.445312 61.1875 C 50.554688 60.980469 50.65625 60.765625 50.757812 60.550781 C 51.589844 58.832031 52.582031 57.246094 53.753906 55.738281 C 53.933594 55.503906 54.101562 55.261719 54.277344 55.023438 C 54.855469 54.222656 55.492188 53.476562 56.15625 52.75 C 56.359375 52.53125 56.359375 52.53125 56.554688 52.269531 L 56.734375 52.058594 L 56.925781 52.058594 L 56.992188 51.894531 C 57.140625 51.632812 57.316406 51.457031 57.53125 51.25 L 57.753906 51.03125 L 57.972656 50.820312 C 58.097656 50.695312 58.226562 50.566406 58.351562 50.441406 C 56.292969 51.277344 56.292969 51.277344 54.351562 52.34375 L 54.167969 52.460938 C 53.398438 52.949219 52.667969 53.46875 51.972656 54.054688 L 51.648438 54.324219 C 50.96875 54.886719 50.351562 55.46875 49.78125 56.148438 L 49.570312 56.398438 C 48.875 57.234375 48.214844 58.097656 47.617188 59.007812 C 47.464844 59.238281 47.292969 59.453125 47.117188 59.664062 C 46.894531 59.640625 46.894531 59.640625 46.640625 59.570312 C 45.464844 58.316406 45.003906 55.792969 44.621094 54.175781 C 43.882812 50.851562 43.746094 47.390625 44.753906 44.109375 C 45.597656 41.519531 47.007812 39.355469 49.023438 37.523438 C 50.183594 36.53125 51.449219 35.773438 52.828125 35.128906 L 53.066406 35.015625 C 53.707031 34.710938 54.351562 34.496094 55.03125 34.304688 L 55.324219 34.21875 C 57.71875 33.535156 60.46875 33.398438 62.910156 33.960938 C 63.074219 34 63.234375 34.042969 63.398438 34.082031 L 63.675781 34.152344 C 66.054688 34.746094 68.296875 35.800781 70.160156 37.414062 L 70.390625 37.609375 C 70.632812 37.828125 70.875 38.046875 71.113281 38.269531 C 71.203125 38.351562 71.296875 38.4375 71.390625 38.527344 C 72.902344 39.964844 74.019531 41.773438 74.824219 43.6875 L 74.914062 43.894531 C 75.414062 45.097656 75.679688 46.300781 75.875 47.585938 C 76.367188 46.3125 76.382812 44.980469 76.378906 43.632812 C 76.378906 43.382812 76.382812 43.132812 76.382812 42.882812 C 76.390625 41.542969 76.25 40.25 75.898438 38.957031 C 75.820312 38.65625 75.773438 38.40625 75.753906 38.089844 C 75.875 37.792969 75.875 37.792969 76.019531 37.664062 C 76.726562 37.195312 77.484375 36.835938 78.253906 36.480469 L 78.472656 36.378906 C 82.03125 34.71875 85.769531 33.757812 89.679688 33.417969 L 89.980469 33.390625 C 91.144531 33.296875 92.308594 33.304688 93.476562 33.304688 M 78.347656 57.765625 C 78.667969 58.085938 78.996094 58.398438 79.332031 58.703125 L 79.585938 58.933594 C 79.734375 59.066406 79.882812 59.199219 80.03125 59.328125 C 80.621094 59.828125 81.167969 60.371094 81.714844 60.921875 C 81.878906 61.085938 82.042969 61.25 82.207031 61.414062 C 82.753906 61.957031 83.28125 62.503906 83.777344 63.089844 L 84.023438 63.371094 C 85.277344 64.816406 86.359375 66.394531 87.421875 67.980469 C 87.523438 68.136719 87.628906 68.285156 87.730469 68.4375 C 89.515625 71.074219 90.863281 73.996094 91.964844 76.972656 L 92.050781 77.203125 C 92.839844 79.277344 93.398438 81.464844 93.871094 83.632812 L 93.964844 83.632812 L 94.042969 83.304688 C 95.921875 75.621094 99.191406 68.429688 104.613281 62.558594 C 104.726562 62.429688 104.839844 62.304688 104.953125 62.171875 C 105.433594 61.609375 105.953125 61.085938 106.476562 60.5625 C 106.628906 60.40625 106.78125 60.253906 106.933594 60.101562 C 107.410156 59.625 107.875 59.179688 108.4375 58.808594 C 108.601562 58.65625 108.761719 58.496094 108.914062 58.335938 C 109.074219 58.175781 109.234375 58.015625 109.390625 57.859375 C 106.835938 58.382812 104.402344 59.507812 102.089844 60.691406 C 101.835938 60.824219 101.578125 60.953125 101.320312 61.082031 C 98.976562 62.265625 96.824219 63.699219 94.746094 65.292969 L 94.566406 65.429688 L 94.410156 65.546875 C 94.238281 65.667969 94.058594 65.757812 93.871094 65.847656 L 93.726562 65.742188 C 93.25 65.386719 92.769531 65.035156 92.292969 64.683594 C 92.15625 64.585938 92.019531 64.484375 91.882812 64.382812 C 89.824219 62.859375 87.617188 61.546875 85.316406 60.429688 C 85.097656 60.324219 84.882812 60.21875 84.667969 60.109375 C 81.621094 58.507812 81.621094 58.507812 78.347656 57.765625 " fill-opacity="1" fill-rule="nonzero"/><path fill="#000000" d="M 145.101562 86.484375 C 145.296875 86.5 145.296875 86.5 145.480469 86.578125 C 145.679688 86.777344 145.722656 86.875 145.808594 87.136719 L 145.886719 87.371094 L 145.96875 87.625 L 146.058594 87.894531 C 146.117188 88.089844 146.179688 88.28125 146.242188 88.472656 C 146.335938 88.753906 146.429688 89.035156 146.523438 89.3125 C 147.070312 90.945312 147.398438 92.609375 147.714844 94.296875 L 147.753906 94.519531 C 147.871094 95.164062 147.960938 95.804688 147.988281 96.457031 L 148 96.761719 L 148.011719 97.082031 L 148.023438 97.414062 C 148.050781 98.273438 148.070312 99.128906 148.050781 99.988281 L 148.046875 100.242188 C 148.027344 101.585938 147.894531 102.863281 147.628906 104.179688 C 147.578125 104.457031 147.527344 104.734375 147.480469 105.011719 C 146.917969 108.269531 145.671875 112.214844 143.578125 114.824219 L 143.289062 114.917969 L 143.003906 114.726562 C 142.976562 114.445312 142.964844 114.175781 142.964844 113.890625 C 142.941406 113 142.84375 112.128906 142.71875 111.246094 L 142.667969 110.878906 C 142.585938 110.277344 142.585938 110.277344 142.433594 109.6875 L 142.257812 109.976562 C 140.980469 112.070312 139.390625 114.035156 137.460938 115.5625 C 137.285156 115.703125 137.113281 115.847656 136.945312 115.996094 C 136.140625 116.695312 135.265625 117.265625 134.363281 117.828125 C 134.1875 117.9375 134.015625 118.046875 133.84375 118.160156 C 132.953125 118.710938 131.972656 119.085938 131.007812 119.484375 L 130.785156 119.578125 C 129.285156 120.191406 129.285156 120.191406 128.53125 120.148438 L 128.246094 119.957031 C 128.300781 119.621094 128.390625 119.375 128.5625 119.078125 C 128.789062 118.636719 128.917969 118.199219 129.03125 117.71875 L 129.078125 117.519531 C 129.183594 117.035156 129.246094 116.550781 129.292969 116.058594 C 126.992188 116.714844 124.800781 117.433594 122.628906 118.4375 L 122.40625 118.539062 C 120.265625 119.527344 118.011719 120.898438 116.3125 122.546875 L 116.144531 122.707031 C 116.035156 122.808594 115.929688 122.917969 115.824219 123.023438 C 115.675781 123.167969 115.675781 123.167969 115.390625 123.382812 C 115.121094 123.375 115.121094 123.375 114.914062 123.289062 L 114.820312 123.191406 C 114.847656 122.5625 115.105469 122.058594 115.378906 121.5 L 115.519531 121.207031 C 116.433594 119.363281 117.574219 117.636719 119.007812 116.15625 L 119.183594 115.972656 C 120.027344 115.101562 120.867188 114.285156 121.867188 113.585938 L 122.023438 113.476562 C 123.542969 112.410156 125.175781 111.515625 126.792969 110.605469 C 128.882812 109.429688 130.886719 108.167969 132.816406 106.738281 L 133.015625 106.59375 C 135.367188 104.867188 137.722656 102.988281 139.457031 100.625 C 139.578125 100.464844 139.699219 100.304688 139.824219 100.152344 C 141.015625 98.617188 142.007812 96.863281 142.730469 95.0625 C 142.789062 94.917969 142.847656 94.777344 142.90625 94.632812 C 143.828125 92.433594 144.371094 90.160156 144.660156 87.796875 L 144.683594 87.597656 C 144.707031 87.417969 144.730469 87.234375 144.75 87.054688 C 144.8125 86.769531 144.8125 86.769531 144.953125 86.585938 Z M 145.101562 86.484375 " fill-opacity="1" fill-rule="nonzero"/><path fill="#000000" d="M 42.546875 86.578125 C 42.703125 86.605469 42.863281 86.636719 43.023438 86.671875 L 43.0625 86.902344 C 43.097656 87.085938 43.132812 87.269531 43.167969 87.449219 C 43.257812 87.917969 43.339844 88.386719 43.421875 88.855469 C 43.863281 91.300781 44.527344 93.644531 45.59375 95.898438 L 45.691406 96.109375 C 45.902344 96.550781 46.125 96.988281 46.355469 97.421875 L 46.53125 97.753906 C 47.238281 99.035156 48.097656 100.214844 49.058594 101.320312 C 49.296875 101.59375 49.519531 101.871094 49.746094 102.152344 C 52.519531 105.550781 56.730469 108.054688 60.492188 110.222656 C 61.433594 110.769531 62.371094 111.320312 63.304688 111.875 L 63.566406 112.03125 C 64.703125 112.710938 65.792969 113.425781 66.828125 114.253906 L 66.992188 114.386719 C 69.679688 116.550781 71.632812 119.359375 72.96875 122.523438 C 73.015625 122.71875 73.015625 122.71875 72.976562 122.933594 L 72.921875 123.097656 C 72.710938 123.167969 72.710938 123.167969 72.445312 123.191406 C 72.21875 123.050781 72.21875 123.050781 71.976562 122.835938 L 71.695312 122.597656 L 71.550781 122.464844 C 70.226562 121.328125 68.777344 120.355469 67.273438 119.484375 C 67.132812 119.398438 66.992188 119.3125 66.851562 119.222656 C 65.910156 118.636719 64.878906 118.226562 63.859375 117.792969 C 63.644531 117.699219 63.433594 117.609375 63.222656 117.511719 C 62.035156 117.003906 60.765625 116.691406 59.523438 116.339844 C 59.226562 116.253906 58.929688 116.160156 58.636719 116.058594 C 58.710938 117.066406 58.996094 117.953125 59.335938 118.894531 L 59.4375 119.183594 L 59.535156 119.441406 C 59.589844 119.671875 59.589844 119.671875 59.558594 119.890625 C 59.496094 120.054688 59.496094 120.054688 59.398438 120.148438 C 58.664062 120.230469 58.082031 119.976562 57.40625 119.703125 L 57.050781 119.5625 C 55.402344 118.894531 53.773438 118.09375 52.335938 117.039062 C 52.21875 116.953125 52.097656 116.871094 51.980469 116.789062 C 50.914062 116.042969 49.988281 115.160156 49.070312 114.246094 L 48.894531 114.078125 C 47.851562 113.039062 46.980469 111.933594 46.152344 110.714844 L 45.984375 110.476562 L 45.828125 110.25 L 45.691406 110.046875 L 45.59375 109.878906 L 45.59375 109.6875 L 45.402344 109.6875 C 45.199219 111.367188 45.007812 113.039062 44.925781 114.726562 L 44.546875 114.917969 C 44.183594 114.582031 43.921875 114.242188 43.683594 113.808594 L 43.574219 113.613281 C 41.484375 109.757812 39.96875 105.242188 39.957031 100.828125 L 39.953125 100.636719 C 39.953125 100.296875 39.953125 99.960938 39.953125 99.625 C 39.949219 99.347656 39.949219 99.078125 39.949219 98.800781 C 39.933594 97.148438 39.96875 95.535156 40.261719 93.902344 L 40.300781 93.675781 C 40.386719 93.191406 40.492188 92.710938 40.597656 92.230469 L 40.648438 92.015625 C 40.886719 90.957031 41.171875 89.925781 41.515625 88.898438 L 41.632812 88.546875 C 42.195312 86.929688 42.195312 86.929688 42.546875 86.578125 " fill-opacity="1" fill-rule="nonzero"/><path fill="#000000" d="M 78.632812 141.167969 C 78.84375 141.15625 79.054688 141.152344 79.265625 141.152344 L 79.457031 141.152344 C 79.589844 141.152344 79.722656 141.152344 79.855469 141.152344 C 80.0625 141.15625 80.265625 141.152344 80.472656 141.152344 C 80.601562 141.152344 80.730469 141.152344 80.859375 141.152344 L 81.21875 141.152344 L 81.492188 141.167969 L 81.585938 141.261719 C 81.597656 141.445312 81.601562 141.628906 81.605469 141.8125 L 81.613281 142.171875 L 81.617188 142.558594 L 81.625 142.957031 C 81.628906 143.304688 81.632812 143.652344 81.636719 144 C 81.640625 144.355469 81.648438 144.710938 81.652344 145.066406 C 81.664062 145.761719 81.671875 146.460938 81.683594 147.15625 L 81.804688 147.027344 C 81.984375 146.832031 82.171875 146.632812 82.355469 146.4375 L 82.542969 146.234375 C 82.945312 145.804688 83.355469 145.382812 83.777344 144.96875 C 84.152344 144.601562 84.507812 144.226562 84.847656 143.824219 C 85.128906 143.507812 85.433594 143.21875 85.734375 142.921875 C 85.996094 142.660156 86.234375 142.386719 86.476562 142.105469 C 86.734375 141.8125 87 141.515625 87.300781 141.261719 C 87.613281 141.15625 87.847656 141.15625 88.175781 141.15625 L 89.355469 141.15625 C 89.714844 141.15625 90.074219 141.160156 90.429688 141.160156 C 90.796875 141.160156 91.160156 141.160156 91.527344 141.160156 C 92.246094 141.164062 92.964844 141.164062 93.679688 141.167969 C 94.574219 143.824219 95.4375 146.488281 96.292969 149.160156 L 96.386719 149.449219 C 96.414062 149.53125 96.441406 149.617188 96.46875 149.703125 C 96.523438 149.867188 96.574219 150.035156 96.632812 150.203125 C 96.949219 149.449219 97.210938 148.683594 97.464844 147.910156 C 97.539062 147.6875 97.613281 147.464844 97.6875 147.242188 C 97.871094 146.691406 98.050781 146.140625 98.234375 145.589844 C 98.386719 145.125 98.542969 144.660156 98.695312 144.199219 C 98.765625 143.984375 98.835938 143.769531 98.90625 143.554688 L 99.042969 143.152344 L 99.15625 142.804688 C 99.351562 142.253906 99.566406 141.710938 99.773438 141.167969 L 102.535156 141.167969 C 102.855469 142.023438 102.855469 142.023438 102.976562 142.382812 L 103.054688 142.632812 L 103.140625 142.894531 L 103.234375 143.175781 C 103.332031 143.476562 103.429688 143.777344 103.527344 144.078125 L 103.632812 144.390625 C 104.148438 145.96875 104.65625 147.554688 105.148438 149.144531 L 105.21875 149.359375 C 105.257812 149.492188 105.300781 149.625 105.34375 149.757812 C 105.417969 150.050781 105.417969 150.050781 105.582031 150.296875 C 105.742188 149.824219 105.902344 149.347656 106.058594 148.875 L 106.132812 148.652344 C 106.46875 147.648438 106.800781 146.644531 107.128906 145.640625 L 107.230469 145.324219 C 107.398438 144.808594 107.566406 144.296875 107.730469 143.78125 L 107.917969 143.203125 L 108.003906 142.941406 C 108.1875 142.371094 108.402344 141.816406 108.628906 141.261719 C 109.035156 141.238281 109.441406 141.222656 109.84375 141.203125 L 110.191406 141.183594 L 110.527344 141.167969 L 110.835938 141.152344 C 111.113281 141.167969 111.246094 141.226562 111.488281 141.355469 L 111.4375 141.507812 L 110.703125 143.75 C 110.222656 145.214844 109.746094 146.6875 109.265625 148.15625 L 109.183594 148.410156 C 108.765625 149.691406 108.34375 150.972656 107.910156 152.253906 C 107.695312 152.898438 107.484375 153.542969 107.296875 154.195312 C 106.695312 154.335938 106.089844 154.3125 105.476562 154.3125 C 105.292969 154.316406 105.292969 154.316406 105.105469 154.320312 L 104.75 154.320312 L 104.421875 154.324219 L 104.152344 154.289062 C 103.960938 154.136719 103.875 154.015625 103.777344 153.789062 L 103.695312 153.53125 L 103.601562 153.238281 L 103.503906 152.921875 L 103.398438 152.589844 C 103.304688 152.292969 103.210938 152 103.117188 151.703125 C 103 151.335938 102.886719 150.972656 102.769531 150.609375 L 102.652344 150.246094 C 102.597656 150.0625 102.539062 149.882812 102.480469 149.699219 C 102.167969 148.722656 101.851562 147.75 101.523438 146.777344 L 101.457031 146.578125 C 101.339844 146.230469 101.222656 145.886719 101.109375 145.539062 C 100.796875 146.277344 100.539062 147.027344 100.289062 147.789062 C 100.167969 148.160156 100.042969 148.535156 99.917969 148.910156 L 99.839844 149.148438 C 99.53125 150.078125 99.214844 151.007812 98.902344 151.933594 C 98.835938 152.121094 98.773438 152.3125 98.707031 152.5 C 98.617188 152.765625 98.527344 153.03125 98.4375 153.296875 L 98.355469 153.539062 C 98.167969 154.089844 98.167969 154.089844 98.058594 154.195312 C 97.164062 154.328125 96.261719 154.320312 95.359375 154.242188 L 95.054688 154.214844 L 94.824219 154.195312 L 94.164062 152.226562 C 93.914062 151.472656 93.664062 150.71875 93.410156 149.964844 C 92.808594 148.164062 92.210938 146.363281 91.621094 144.558594 L 91.503906 144.207031 C 91.394531 143.875 91.285156 143.539062 91.175781 143.207031 L 91.078125 142.902344 C 90.917969 142.421875 90.765625 141.941406 90.632812 141.453125 C 90.144531 141.839844 89.722656 142.277344 89.304688 142.738281 C 89.0625 143.007812 88.820312 143.269531 88.5625 143.519531 C 88.339844 143.738281 88.128906 143.964844 87.925781 144.203125 C 87.636719 144.539062 87.328125 144.847656 87.011719 145.160156 C 86.769531 145.40625 86.546875 145.664062 86.324219 145.925781 C 86.101562 146.171875 85.863281 146.402344 85.621094 146.628906 C 85.46875 146.785156 85.46875 146.785156 85.394531 147.0625 C 85.480469 147.222656 85.480469 147.222656 85.625 147.378906 L 85.777344 147.566406 L 85.949219 147.765625 C 86.0625 147.902344 86.179688 148.039062 86.296875 148.179688 L 86.472656 148.386719 C 86.691406 148.652344 86.898438 148.925781 87.109375 149.203125 C 87.460938 149.664062 87.824219 150.117188 88.191406 150.5625 C 88.664062 151.136719 89.113281 151.722656 89.554688 152.316406 C 89.933594 152.828125 90.335938 153.3125 90.75 153.789062 L 90.917969 154.003906 L 90.917969 154.195312 C 87.96875 154.40625 87.96875 154.40625 87.226562 154.078125 C 86.859375 153.796875 86.640625 153.441406 86.433594 153.03125 C 86.3125 152.792969 86.148438 152.601562 85.972656 152.398438 L 85.792969 152.175781 C 85.523438 151.832031 85.246094 151.492188 84.964844 151.152344 C 84.554688 150.644531 84.144531 150.136719 83.738281 149.621094 C 83.601562 149.457031 83.457031 149.300781 83.300781 149.15625 C 82.886719 149.554688 82.492188 149.972656 82.117188 150.410156 C 81.96875 150.582031 81.96875 150.582031 81.816406 150.6875 L 81.683594 150.867188 C 81.652344 151.117188 81.632812 151.371094 81.632812 151.621094 L 81.628906 151.84375 C 81.625 152.082031 81.621094 152.3125 81.617188 152.546875 C 81.613281 152.707031 81.609375 152.867188 81.605469 153.027344 C 81.597656 153.414062 81.59375 153.804688 81.585938 154.195312 C 81.183594 154.214844 80.785156 154.230469 80.382812 154.246094 L 80.042969 154.265625 L 79.707031 154.277344 L 79.402344 154.292969 C 79.105469 154.289062 78.832031 154.246094 78.539062 154.195312 C 78.535156 152.511719 78.535156 150.824219 78.535156 149.140625 C 78.535156 148.359375 78.53125 147.578125 78.53125 146.792969 C 78.53125 146.113281 78.53125 145.429688 78.53125 144.75 C 78.53125 144.390625 78.53125 144.027344 78.53125 143.667969 C 78.53125 143.328125 78.527344 142.988281 78.527344 142.648438 C 78.527344 142.464844 78.527344 142.277344 78.527344 142.09375 L 78.527344 141.476562 L 78.539062 141.261719 Z M 78.632812 141.167969 " fill-opacity="1" fill-rule="nonzero"/><path fill="#000000" d="M 125.484375 80.207031 C 125.695312 80.28125 125.695312 80.28125 125.867188 80.398438 C 125.960938 80.585938 125.960938 80.585938 125.960938 80.851562 C 125.90625 81.6875 125.757812 82.453125 125.527344 83.257812 L 125.421875 83.617188 C 124.195312 87.847656 121.886719 91.667969 118.734375 94.757812 C 117.113281 96.265625 115.234375 97.5 113.296875 98.5625 L 112.976562 98.734375 L 112.675781 98.894531 L 112.410156 99.035156 C 112.113281 99.148438 111.898438 99.164062 111.582031 99.132812 L 111.390625 98.941406 C 111.246094 96.792969 112.460938 94.136719 113.359375 92.25 C 115.144531 88.625 117.777344 85.121094 121.105469 82.773438 L 121.292969 82.640625 C 121.675781 82.371094 122.066406 82.105469 122.457031 81.84375 C 122.605469 81.746094 122.75 81.644531 122.894531 81.546875 C 123.445312 81.175781 124.027344 80.875 124.621094 80.582031 L 124.859375 80.460938 L 125.089844 80.351562 L 125.292969 80.253906 Z M 125.484375 80.207031 " fill-opacity="1" fill-rule="nonzero"/><path fill="#000000" d="M 62.460938 80.273438 C 62.910156 80.308594 63.171875 80.449219 63.546875 80.675781 L 63.75 80.792969 C 63.949219 80.914062 64.152344 81.035156 64.351562 81.15625 L 64.523438 81.265625 C 65.84375 82.074219 67.132812 82.945312 68.253906 84.011719 C 68.382812 84.125 68.507812 84.234375 68.636719 84.34375 L 69.015625 84.675781 L 69.253906 84.882812 C 69.753906 85.324219 70.207031 85.78125 70.636719 86.292969 L 70.878906 86.574219 C 71.488281 87.273438 72.027344 87.992188 72.539062 88.765625 L 72.644531 88.925781 C 73.519531 90.238281 74.289062 91.601562 74.921875 93.046875 L 75.066406 93.375 C 75.785156 95.085938 76.578125 97.152344 76.445312 99.035156 L 76.347656 99.132812 C 75.617188 99.113281 75.125 98.890625 74.5 98.53125 L 74.222656 98.378906 C 72.394531 97.339844 70.722656 96.121094 69.207031 94.664062 L 69.007812 94.46875 C 67.984375 93.492188 67.070312 92.492188 66.253906 91.335938 L 66.109375 91.125 C 65.386719 90.09375 64.742188 89.027344 64.160156 87.910156 L 64.070312 87.734375 C 63.039062 85.734375 61.929688 83.066406 61.964844 80.789062 L 61.96875 80.566406 L 61.96875 80.398438 C 62.160156 80.300781 62.160156 80.300781 62.460938 80.273438 M 65.523438 141.125 C 65.742188 141.152344 65.742188 141.152344 65.96875 141.261719 C 66.359375 141.601562 66.667969 142.011719 66.980469 142.421875 C 67.160156 142.652344 67.34375 142.875 67.527344 143.097656 L 67.734375 143.347656 C 68.03125 143.714844 68.335938 144.082031 68.636719 144.449219 C 69.066406 144.972656 69.5 145.496094 69.929688 146.023438 C 70.28125 146.453125 70.636719 146.878906 70.988281 147.304688 C 71.441406 147.855469 71.894531 148.410156 72.351562 148.964844 L 72.445312 141.261719 C 73.324219 140.820312 74.414062 141.167969 75.398438 141.167969 L 75.398438 154.195312 L 72.921875 154.195312 C 72.457031 153.839844 72.335938 153.714844 72.066406 153.242188 C 71.902344 153.023438 71.730469 152.8125 71.558594 152.601562 C 71.46875 152.488281 71.382812 152.375 71.292969 152.261719 C 70.96875 151.847656 70.625 151.449219 70.28125 151.054688 C 69.945312 150.667969 69.625 150.273438 69.308594 149.871094 C 69.078125 149.589844 68.84375 149.3125 68.605469 149.035156 C 68.183594 148.542969 67.777344 148.035156 67.378906 147.523438 C 66.933594 146.878906 66.933594 146.878906 66.351562 146.394531 L 66.351562 154.289062 C 63.589844 154.289062 63.589844 154.289062 63.398438 154.195312 L 63.398438 141.261719 C 64.460938 141.199219 64.460938 141.199219 65.523438 141.125 " fill-opacity="1" fill-rule="nonzero"/><path fill="#000000" d="M 122.664062 141.574219 C 123.210938 141.816406 123.679688 142.132812 124.152344 142.496094 L 124.332031 142.628906 C 124.855469 143.039062 125.214844 143.566406 125.578125 144.113281 L 125.742188 144.359375 C 126.328125 145.328125 126.539062 146.410156 126.578125 147.53125 C 126.589844 148.8125 126.351562 149.941406 125.738281 151.078125 C 125.164062 152.027344 124.375 152.914062 123.398438 153.464844 C 121.769531 154.320312 120.273438 154.453125 118.449219 154.402344 C 117.25 154.335938 116.113281 153.882812 115.105469 153.242188 C 114.761719 152.980469 114.457031 152.695312 114.152344 152.386719 L 113.972656 152.226562 C 113.296875 151.617188 112.878906 150.820312 112.601562 149.964844 C 112.175781 148.445312 112.160156 147.0625 112.535156 145.539062 C 112.632812 145.238281 112.757812 144.964844 112.914062 144.683594 L 113.035156 144.457031 C 113.390625 143.820312 113.835938 143.300781 114.34375 142.785156 L 114.496094 142.621094 C 115.304688 141.855469 116.414062 141.414062 117.472656 141.136719 C 119.25 140.742188 120.980469 140.933594 122.664062 141.574219 M 116.628906 144.398438 C 116.023438 144.898438 115.695312 145.691406 115.390625 146.394531 C 115.179688 147.15625 115.222656 148.066406 115.355469 148.835938 C 115.582031 149.636719 115.957031 150.253906 116.515625 150.867188 C 117.011719 151.347656 117.597656 151.601562 118.246094 151.816406 C 119.078125 152.023438 119.9375 151.96875 120.757812 151.757812 C 121.316406 151.582031 121.726562 151.359375 122.152344 150.960938 L 122.402344 150.742188 C 122.882812 150.199219 123.320312 149.585938 123.484375 148.871094 C 123.632812 147.867188 123.625 146.902344 123.25 145.953125 C 122.960938 145.3125 122.632812 144.722656 122.054688 144.304688 C 121.328125 143.828125 120.574219 143.511719 119.703125 143.421875 C 118.550781 143.382812 117.5625 143.738281 116.628906 144.398438 " fill-opacity="1" fill-rule="nonzero"/><path fill="#000000" d="M 138.125 142 C 138.753906 142.363281 139.199219 142.757812 139.574219 143.382812 C 140.105469 144.367188 140.285156 145.207031 140.269531 146.328125 C 140.21875 147.078125 140.007812 147.738281 139.617188 148.382812 C 139.125 149.113281 138.550781 149.597656 137.769531 150.011719 L 137.578125 150.011719 C 138.234375 150.976562 138.894531 151.9375 139.574219 152.882812 C 139.878906 153.3125 140.160156 153.746094 140.433594 154.195312 C 139.402344 154.332031 138.328125 154.472656 137.292969 154.289062 C 137.023438 154.144531 136.878906 154.015625 136.691406 153.777344 C 136.503906 153.46875 136.335938 153.15625 136.183594 152.832031 C 135.957031 152.382812 135.65625 151.984375 135.363281 151.574219 C 135.257812 151.421875 135.15625 151.269531 135.050781 151.117188 C 134.898438 150.882812 134.898438 150.882812 134.71875 150.675781 C 134.515625 150.667969 134.3125 150.664062 134.109375 150.667969 L 133.335938 150.667969 L 131.960938 150.675781 L 131.863281 154.289062 C 131.1875 154.292969 131.1875 154.292969 130.496094 154.296875 L 130.0625 154.300781 L 129.378906 154.300781 C 129.101562 154.289062 129.101562 154.289062 128.914062 154.195312 L 128.914062 141.261719 C 136.359375 141.109375 136.359375 141.109375 138.125 142 M 131.863281 143.640625 L 131.863281 148.203125 L 133.519531 148.226562 L 134.035156 148.238281 C 134.757812 148.246094 135.394531 148.246094 136.0625 147.929688 C 136.503906 147.667969 136.816406 147.398438 137.097656 146.96875 C 137.289062 146.425781 137.253906 145.820312 137.195312 145.253906 C 137.097656 144.878906 136.929688 144.621094 136.671875 144.332031 C 136.351562 144.027344 136.007812 143.828125 135.582031 143.695312 C 134.90625 143.566406 134.207031 143.609375 133.523438 143.621094 Z M 131.863281 143.640625 " fill-opacity="1" fill-rule="nonzero"/><path fill="#000000" d="M 35.023438 141.167969 C 35.234375 141.15625 35.445312 141.15625 35.65625 141.15625 L 35.847656 141.15625 C 36.050781 141.15625 36.253906 141.160156 36.457031 141.160156 C 36.59375 141.160156 36.730469 141.160156 36.867188 141.160156 C 37.207031 141.164062 37.542969 141.164062 37.878906 141.167969 C 37.960938 141.515625 37.984375 141.839844 37.984375 142.203125 L 37.984375 143.265625 C 37.984375 143.585938 37.980469 143.910156 37.980469 144.230469 C 37.980469 144.5625 37.980469 144.890625 37.980469 145.21875 C 37.976562 145.867188 37.976562 146.511719 37.972656 147.15625 C 38.25 146.941406 38.503906 146.734375 38.722656 146.460938 C 39.070312 146.054688 39.449219 145.679688 39.832031 145.300781 C 40.253906 144.886719 40.664062 144.46875 41.046875 144.015625 C 41.308594 143.71875 41.59375 143.449219 41.875 143.171875 C 42.128906 142.917969 42.375 142.660156 42.609375 142.382812 L 42.769531 142.207031 C 42.878906 142.074219 42.984375 141.945312 43.089844 141.808594 C 43.277344 141.585938 43.445312 141.421875 43.6875 141.261719 C 44.0625 141.167969 44.421875 141.15625 44.808594 141.164062 C 45.054688 141.167969 45.304688 141.164062 45.550781 141.164062 C 46.042969 141.160156 46.53125 141.160156 47.019531 141.167969 C 46.859375 141.515625 46.664062 141.730469 46.382812 142 C 46.089844 142.285156 45.804688 142.570312 45.539062 142.882812 C 45.230469 143.242188 44.898438 143.570312 44.5625 143.902344 C 44.3125 144.15625 44.085938 144.421875 43.855469 144.6875 C 43.621094 144.953125 43.367188 145.195312 43.113281 145.445312 C 42.867188 145.695312 42.640625 145.957031 42.414062 146.222656 C 42.210938 146.449219 42 146.660156 41.78125 146.871094 C 41.957031 147.265625 42.214844 147.59375 42.472656 147.9375 L 42.625 148.136719 C 43.054688 148.699219 43.5 149.246094 43.953125 149.785156 C 44.375 150.292969 44.773438 150.8125 45.164062 151.34375 C 45.5625 151.878906 45.980469 152.398438 46.40625 152.914062 C 46.722656 153.296875 47.023438 153.6875 47.308594 154.101562 L 47.308594 154.195312 C 46.847656 154.230469 46.390625 154.261719 45.929688 154.289062 C 45.773438 154.296875 45.617188 154.308594 45.460938 154.320312 C 44.433594 154.40625 44.433594 154.40625 43.972656 154.289062 C 43.589844 154.03125 43.363281 153.726562 43.117188 153.339844 C 43.027344 153.222656 42.933594 153.109375 42.839844 153 C 42.761719 152.894531 42.683594 152.792969 42.605469 152.691406 C 42.222656 152.195312 41.824219 151.714844 41.417969 151.238281 C 41.035156 150.792969 40.675781 150.335938 40.320312 149.875 C 40.121094 149.621094 39.925781 149.375 39.6875 149.15625 C 39.203125 149.628906 38.734375 150.109375 38.289062 150.625 C 38.21875 150.707031 38.148438 150.789062 38.070312 150.867188 C 37.949219 151.574219 37.941406 152.289062 37.921875 153.003906 L 37.910156 153.378906 C 37.898438 153.683594 37.886719 153.984375 37.878906 154.289062 C 37.488281 154.292969 37.101562 154.292969 36.710938 154.296875 C 36.578125 154.296875 36.445312 154.296875 36.3125 154.296875 C 36.121094 154.296875 35.929688 154.300781 35.738281 154.300781 L 35.394531 154.300781 C 35.117188 154.289062 35.117188 154.289062 34.925781 154.195312 C 34.925781 152.511719 34.921875 150.824219 34.921875 149.140625 C 34.921875 148.359375 34.921875 147.578125 34.921875 146.792969 C 34.917969 146.113281 34.917969 145.429688 34.917969 144.75 C 34.917969 144.390625 34.917969 144.027344 34.917969 143.667969 C 34.917969 143.328125 34.917969 142.988281 34.917969 142.648438 C 34.917969 142.464844 34.914062 142.277344 34.914062 142.09375 L 34.914062 141.476562 L 34.925781 141.261719 Z M 142.71875 141.167969 L 145.671875 141.167969 L 145.671875 147.253906 L 145.863281 147.253906 L 145.9375 147.082031 C 146.058594 146.863281 146.179688 146.722656 146.359375 146.550781 L 146.542969 146.371094 L 146.738281 146.183594 C 147.167969 145.757812 147.589844 145.332031 147.984375 144.871094 C 148.246094 144.574219 148.527344 144.300781 148.8125 144.023438 C 149.054688 143.785156 149.285156 143.542969 149.503906 143.28125 C 149.910156 142.804688 150.363281 142.375 150.808594 141.9375 L 150.992188 141.753906 L 151.160156 141.59375 C 151.300781 141.453125 151.300781 141.453125 151.382812 141.261719 L 154.71875 141.261719 C 154.335938 141.769531 153.984375 142.207031 153.535156 142.640625 C 153.140625 143.015625 152.769531 143.414062 152.414062 143.824219 C 152.121094 144.15625 151.816406 144.476562 151.507812 144.796875 L 151.109375 145.222656 C 150.863281 145.484375 150.613281 145.746094 150.363281 146.003906 L 150.046875 146.332031 L 149.894531 146.480469 C 149.746094 146.632812 149.746094 146.632812 149.574219 146.871094 C 149.601562 147.089844 149.652344 147.226562 149.773438 147.40625 L 149.902344 147.5625 L 150.050781 147.738281 L 150.214844 147.929688 C 150.328125 148.066406 150.441406 148.203125 150.550781 148.339844 L 150.730469 148.558594 C 151.019531 148.910156 151.296875 149.269531 151.574219 149.628906 C 152 150.179688 152.433594 150.722656 152.871094 151.257812 C 153.652344 152.210938 154.386719 153.195312 155.097656 154.195312 C 154.339844 154.285156 153.582031 154.3125 152.820312 154.324219 L 152.527344 154.335938 C 152.265625 154.339844 152.023438 154.332031 151.765625 154.289062 C 151.492188 154.085938 151.492188 154.085938 151.289062 153.8125 L 151.042969 153.53125 C 150.957031 153.429688 150.871094 153.328125 150.785156 153.226562 L 150.644531 153.0625 C 150.25 152.589844 149.863281 152.109375 149.480469 151.625 C 149.007812 151.035156 148.53125 150.445312 148.050781 149.863281 C 147.929688 149.71875 147.820312 149.570312 147.710938 149.414062 L 147.574219 149.25 L 147.289062 149.15625 L 147.238281 149.3125 C 147.097656 149.535156 147.097656 149.535156 146.792969 149.746094 C 146.347656 150.058594 146 150.367188 145.765625 150.867188 C 145.523438 151.933594 145.625 153.109375 145.671875 154.195312 C 145.25 154.214844 144.832031 154.230469 144.410156 154.246094 L 144.046875 154.265625 L 143.699219 154.277344 L 143.378906 154.292969 C 143.101562 154.289062 143.101562 154.289062 142.71875 154.195312 Z M 51.496094 141.167969 L 51.496094 141.457031 C 51.503906 142.367188 51.511719 143.277344 51.519531 144.191406 C 51.523438 144.660156 51.527344 145.125 51.527344 145.59375 C 51.53125 146.046875 51.535156 146.5 51.539062 146.953125 C 51.542969 147.125 51.542969 147.292969 51.542969 147.464844 C 51.539062 149.152344 51.539062 149.152344 52.097656 150.722656 C 52.335938 151.054688 52.582031 151.304688 52.925781 151.53125 C 53.53125 151.804688 54.144531 151.867188 54.804688 151.851562 C 55.40625 151.785156 55.917969 151.582031 56.4375 151.277344 C 56.828125 150.851562 57.082031 150.386719 57.214844 149.824219 C 57.367188 149.027344 57.339844 148.214844 57.34375 147.410156 C 57.34375 147.230469 57.347656 147.054688 57.347656 146.875 C 57.355469 146.410156 57.359375 145.945312 57.363281 145.480469 C 57.367188 145.007812 57.371094 144.53125 57.375 144.054688 C 57.382812 143.125 57.394531 142.191406 57.402344 141.261719 L 60.351562 141.167969 C 60.359375 142.234375 60.363281 143.304688 60.367188 144.371094 C 60.367188 144.867188 60.371094 145.363281 60.375 145.859375 C 60.378906 146.339844 60.378906 146.820312 60.378906 147.296875 C 60.378906 147.480469 60.378906 147.664062 60.382812 147.84375 C 60.394531 149.214844 60.339844 150.574219 59.6875 151.816406 C 59.136719 152.695312 58.535156 153.347656 57.621094 153.839844 C 57.023438 154.121094 56.425781 154.269531 55.78125 154.386719 L 55.578125 154.421875 C 54.289062 154.621094 52.871094 154.476562 51.644531 154.027344 C 50.878906 153.683594 50.214844 153.1875 49.675781 152.542969 C 49.164062 151.828125 48.820312 151.09375 48.671875 150.230469 L 48.632812 150.019531 C 48.5 149.15625 48.507812 148.292969 48.515625 147.417969 C 48.515625 147.238281 48.515625 147.058594 48.515625 146.882812 C 48.519531 146.417969 48.523438 145.953125 48.523438 145.488281 C 48.527344 145.007812 48.527344 144.53125 48.53125 144.054688 C 48.535156 143.125 48.539062 142.191406 48.542969 141.261719 C 49.527344 141.203125 50.507812 141.148438 51.496094 141.167969 M 31.464844 141.628906 C 31.746094 141.765625 32.003906 141.945312 32.261719 142.117188 L 31.402344 144.304688 C 30.984375 144.222656 30.632812 144.09375 30.242188 143.929688 C 29.113281 143.46875 28.0625 143.347656 26.835938 143.476562 C 26.453125 143.542969 26.179688 143.632812 25.839844 143.816406 C 25.523438 144.070312 25.523438 144.070312 25.308594 144.398438 C 25.265625 144.691406 25.246094 144.964844 25.308594 145.253906 C 25.492188 145.523438 25.644531 145.703125 25.921875 145.867188 C 26.722656 146.1875 27.53125 146.398438 28.367188 146.59375 C 29.664062 146.894531 30.898438 147.1875 31.902344 148.117188 C 32.277344 148.507812 32.554688 148.871094 32.691406 149.398438 C 32.84375 150.183594 32.875 150.867188 32.648438 151.644531 C 32.386719 152.335938 31.945312 152.871094 31.378906 153.347656 C 30.550781 153.929688 29.648438 154.265625 28.644531 154.386719 C 26.59375 154.519531 24.640625 154.390625 22.765625 153.519531 C 22.453125 153.339844 22.453125 153.339844 21.976562 152.863281 L 22.929688 150.773438 C 23.277344 150.910156 23.570312 151.050781 23.894531 151.230469 C 25.113281 151.835938 26.402344 152.097656 27.765625 152.042969 C 28.378906 152 28.882812 151.871094 29.402344 151.542969 C 29.617188 151.316406 29.714844 151.167969 29.785156 150.867188 C 29.777344 150.503906 29.699219 150.3125 29.511719 150 C 29.222656 149.6875 28.898438 149.570312 28.5 149.441406 C 27.859375 149.257812 27.21875 149.089844 26.574219 148.925781 C 25.363281 148.613281 24.085938 148.28125 23.121094 147.441406 C 22.722656 146.976562 22.414062 146.515625 22.261719 145.921875 C 22.183594 145.164062 22.144531 144.300781 22.410156 143.578125 C 22.734375 142.9375 23.15625 142.398438 23.726562 141.957031 C 25.984375 140.472656 29.039062 140.742188 31.464844 141.628906 M 164.777344 141.628906 C 165.058594 141.765625 165.3125 141.945312 165.574219 142.117188 L 164.714844 144.304688 C 164.296875 144.222656 163.949219 144.09375 163.5625 143.929688 C 162.445312 143.472656 161.363281 143.347656 160.15625 143.476562 C 159.773438 143.542969 159.492188 143.628906 159.152344 143.8125 C 158.890625 144.035156 158.753906 144.175781 158.621094 144.496094 C 158.578125 144.757812 158.578125 144.992188 158.621094 145.253906 C 158.746094 145.53125 158.746094 145.53125 159.003906 145.730469 C 159.824219 146.210938 160.8125 146.367188 161.730469 146.585938 C 163.046875 146.90625 164.277344 147.230469 165.28125 148.1875 C 165.632812 148.558594 165.867188 148.902344 166 149.394531 C 166.160156 150.179688 166.1875 150.867188 165.960938 151.644531 C 165.695312 152.347656 165.246094 152.871094 164.671875 153.351562 C 163.871094 153.9375 163.019531 154.222656 162.050781 154.386719 C 161.585938 154.425781 161.128906 154.429688 160.664062 154.425781 L 160.285156 154.425781 C 158.691406 154.398438 157.164062 154.136719 155.765625 153.339844 L 155.289062 152.863281 L 156.242188 150.773438 C 156.589844 150.910156 156.882812 151.050781 157.207031 151.230469 C 158.425781 151.835938 159.714844 152.097656 161.078125 152.042969 C 161.695312 152 162.195312 151.875 162.71875 151.539062 C 162.964844 151.28125 162.964844 151.28125 163.097656 150.960938 C 163.105469 150.632812 163.105469 150.632812 163.003906 150.296875 C 162.847656 150.039062 162.753906 149.90625 162.527344 149.726562 C 161.839844 149.367188 161.074219 149.207031 160.328125 149.027344 C 157.421875 148.328125 157.421875 148.328125 156.421875 147.460938 C 156.023438 147.003906 155.730469 146.507812 155.574219 145.921875 C 155.457031 145.152344 155.460938 144.316406 155.722656 143.578125 C 156.042969 142.9375 156.46875 142.398438 157.035156 141.957031 C 159.28125 140.472656 162.363281 140.746094 164.777344 141.628906 " fill-opacity="1" fill-rule="nonzero"/></svg>