<svg xmlns="http://www.w3.org/2000/svg" xmlns:xlink="http://www.w3.org/1999/xlink" width="940" zoomAndPan="magnify" viewBox="0 0 705 591.000005" height="788" preserveAspectRatio="xMidYMid meet" version="1.2"><g id="7c5ad28768"><path style=" stroke:none;fill-rule:nonzero;fill:#ffffff;fill-opacity:1;" d="M 350.5 100.988281 C 351.644531 100.984375 352.792969 100.980469 353.9375 100.976562 C 372.539062 100.933594 390.570312 104.617188 406.894531 113.8125 C 408.40625 114.691406 408.40625 114.691406 408.984375 115.355469 C 408.964844 116.320312 408.964844 116.320312 408.6875 117.441406 L 408.554688 118.019531 C 408.410156 118.636719 408.261719 119.25 408.109375 119.863281 C 406.09375 128.335938 406.078125 137.277344 408.089844 145.765625 L 408.386719 146.363281 L 408.5 145.75 C 409.945312 138.023438 409.945312 138.023438 411.371094 134.4375 L 411.621094 133.808594 C 412.992188 130.414062 414.683594 127.328125 416.738281 124.300781 L 417.1875 123.628906 C 417.613281 123.035156 418.058594 122.476562 418.527344 121.914062 L 418.921875 121.433594 C 424.914062 114.214844 432.453125 108.574219 441.304688 105.285156 L 442.378906 104.917969 L 442.945312 104.722656 C 450.957031 101.992188 460.347656 101.089844 468.710938 102.699219 C 469.683594 102.914062 470.640625 103.164062 471.597656 103.425781 L 472.421875 103.640625 C 479.269531 105.441406 485.332031 108.320312 490.761719 112.882812 C 491.3125 113.34375 491.867188 113.792969 492.425781 114.238281 C 494.234375 115.667969 495.789062 117.144531 497.242188 118.933594 L 497.957031 119.796875 C 502.523438 125.433594 505.980469 132.710938 507.214844 139.875 L 507.378906 140.996094 L 507.472656 141.585938 C 509.199219 152.984375 507.539062 165.492188 503.433594 176.246094 C 501.109375 182.015625 501.109375 182.015625 499.628906 183.632812 C 499.101562 183.566406 499.101562 183.566406 498.433594 183.335938 C 497.128906 182.027344 496.09375 180.480469 495.171875 178.882812 C 493.289062 175.636719 490.570312 172.925781 488 170.21875 L 487.582031 169.773438 C 481.3125 163.148438 472.855469 158.351562 464.445312 155.011719 L 464.144531 155.308594 L 464.523438 155.679688 C 465.515625 156.664062 466.507812 157.652344 467.496094 158.640625 L 468.066406 159.210938 C 468.988281 160.160156 469.855469 161.148438 470.703125 162.167969 L 471.453125 163.035156 C 473.367188 165.265625 475.207031 167.558594 476.964844 169.917969 L 477.65625 170.839844 C 482.339844 177.167969 486.433594 184.066406 489.503906 191.316406 C 489.777344 191.960938 490.0625 192.597656 490.351562 193.234375 C 496.542969 207.136719 499.476562 222.035156 499.421875 237.210938 L 499.421875 238.242188 C 499.375 252.066406 496.863281 265.855469 490.980469 278.453125 L 490.597656 279.285156 C 488.984375 282.773438 487.316406 286.203125 485.316406 289.484375 L 484.839844 290.265625 C 481.378906 295.828125 477.582031 301.109375 473.089844 305.882812 L 471.597656 305.285156 C 471.660156 303.90625 471.984375 302.960938 472.644531 301.746094 C 474.089844 298.976562 475.046875 296.007812 476.058594 293.0625 C 476.320312 292.308594 476.589844 291.558594 476.867188 290.8125 C 478.011719 287.582031 478.652344 284.253906 479.296875 280.894531 L 479.433594 280.175781 C 481.402344 269.886719 480.714844 259.609375 478.8125 249.378906 L 478.660156 248.558594 C 478.050781 245.269531 477.28125 242.21875 476.070312 239.09375 C 475.84375 238.410156 475.621094 237.726562 475.402344 237.042969 C 473.449219 231.582031 469.90625 226.535156 465.558594 222.714844 C 461.007812 218.886719 455.90625 217.167969 450.140625 215.945312 C 443.351562 215.117188 436.386719 216.359375 430.023438 218.800781 C 429.367188 219.09375 428.714844 219.398438 428.066406 219.710938 L 426.910156 220.25 C 421.726562 222.707031 417.050781 225.765625 413.09375 229.953125 L 412.5625 230.445312 L 411.964844 230.445312 L 411.75 230.964844 C 411.296875 231.769531 410.765625 232.246094 410.082031 232.871094 C 403.796875 239.039062 399.863281 247.570312 397.058594 255.792969 L 396.824219 256.464844 C 394.570312 263.015625 393.230469 269.808594 392.285156 276.664062 L 392.148438 277.628906 C 390.261719 291.308594 391.746094 305.367188 395.722656 318.566406 C 396.039062 319.628906 396.296875 320.574219 396.164062 321.6875 L 395.566406 322.28125 C 395.011719 322.253906 395.011719 322.253906 394.375 321.984375 C 393.765625 321.417969 393.765625 321.417969 393.125 320.679688 L 392.410156 319.859375 C 391.5 318.777344 390.609375 317.675781 389.71875 316.574219 C 388.691406 315.34375 387.609375 314.175781 386.519531 313.003906 C 385.847656 312.273438 385.1875 311.53125 384.535156 310.785156 C 383.140625 309.230469 381.667969 307.753906 380.191406 306.273438 L 379.464844 305.542969 C 378.1875 304.269531 376.886719 303.039062 375.515625 301.863281 C 374.839844 301.277344 374.179688 300.671875 373.519531 300.070312 C 372.367188 299.027344 371.175781 298.054688 369.9375 297.109375 C 369.117188 296.480469 368.328125 295.816406 367.539062 295.148438 L 367.824219 295.578125 C 368.132812 296.042969 368.441406 296.503906 368.746094 296.964844 C 369.148438 297.566406 369.554688 298.160156 369.964844 298.753906 C 372.332031 302.207031 374.417969 305.824219 376.484375 309.460938 L 376.949219 310.273438 C 381.148438 317.691406 384.730469 325.375 387.8125 333.316406 L 388.148438 334.167969 C 394.136719 349.386719 399.394531 367.082031 397 383.59375 C 395.726562 391.320312 392.449219 398.230469 387.515625 404.277344 L 386.773438 405.191406 C 383.945312 408.503906 380.488281 410.996094 376.78125 413.222656 L 376.039062 413.6875 C 375.421875 414.042969 375.421875 414.042969 374.398438 414.417969 C 373.664062 414.160156 373.664062 414.160156 372.90625 413.523438 C 372.410156 412.667969 372.050781 411.765625 371.675781 410.855469 C 370.480469 408.15625 369.101562 406.289062 366.941406 404.277344 C 366.761719 404.101562 366.582031 403.921875 366.394531 403.738281 C 363.464844 401 359.730469 399.648438 355.917969 398.6875 C 352.023438 397.878906 348.410156 398.355469 344.648438 399.574219 C 341.320312 400.765625 338.21875 402.601562 335.796875 405.21875 C 334.058594 407.308594 332.800781 409.53125 331.632812 411.972656 C 331.21875 412.808594 330.761719 413.625 330.269531 414.417969 C 326.238281 413.214844 322.875 410.675781 319.832031 407.855469 L 319.066406 407.175781 C 314.546875 402.949219 310.683594 396.859375 308.71875 390.984375 C 307.25 386.085938 306.34375 381.214844 306.339844 376.101562 L 306.339844 375.480469 C 306.34375 371.984375 306.605469 368.589844 307.175781 365.140625 C 307.308594 364.328125 307.421875 363.515625 307.527344 362.699219 C 310.140625 344.105469 318.246094 324.609375 327.882812 308.566406 C 328.144531 308.121094 328.402344 307.671875 328.664062 307.226562 C 330.292969 304.445312 332.015625 301.726562 333.828125 299.0625 L 334.394531 298.230469 C 335.34375 296.847656 336.320312 295.523438 337.421875 294.253906 L 336.640625 294.945312 C 335.761719 295.699219 334.859375 296.414062 333.9375 297.117188 C 331.464844 299.015625 329.214844 301.101562 326.960938 303.257812 C 326.265625 303.914062 325.554688 304.558594 324.84375 305.203125 C 323.128906 306.757812 321.542969 308.390625 319.996094 310.117188 C 319.304688 310.875 318.59375 311.597656 317.855469 312.3125 C 316.671875 313.484375 315.625 314.730469 314.585938 316.027344 C 313.652344 317.183594 312.6875 318.316406 311.722656 319.449219 C 310.929688 320.378906 310.15625 321.324219 309.394531 322.28125 C 308.996094 322.191406 308.597656 322.09375 308.203125 321.984375 L 307.90625 321.6875 C 307.746094 319.613281 308.246094 317.917969 308.835938 315.945312 C 313.847656 298.308594 313.203125 280.175781 308.804688 262.5 C 308.050781 259.515625 307.226562 256.578125 306.117188 253.703125 L 305.871094 253.058594 C 303.488281 246.875 300.503906 240.9375 296.277344 235.8125 C 296.027344 235.503906 295.777344 235.191406 295.53125 234.878906 C 294.894531 234.089844 294.246094 233.308594 293.59375 232.535156 L 293.046875 231.878906 C 291.847656 230.460938 290.558594 229.234375 289.121094 228.0625 L 288.304688 227.394531 C 282.277344 222.601562 275.519531 218.683594 267.949219 217.027344 L 267.1875 216.855469 C 260.199219 215.292969 253.949219 215.53125 247.078125 217.625 C 242.660156 219.183594 238.375 222.167969 235.136719 225.570312 C 229.738281 232.09375 226.9375 239.917969 225.199219 248.09375 L 225.046875 248.808594 C 223.871094 254.363281 223.421875 259.796875 223.445312 265.472656 C 223.449219 266.375 223.445312 267.277344 223.441406 268.179688 C 223.4375 273.382812 223.839844 278.386719 225.015625 283.464844 L 225.148438 284.046875 C 226.464844 289.757812 228.121094 295.609375 230.878906 300.800781 C 231.328125 301.660156 231.574219 302.320312 231.675781 303.292969 L 231.574219 304.09375 L 230.976562 304.691406 C 230.316406 304.867188 230.316406 304.867188 229.488281 304.691406 C 228.734375 304.035156 228.140625 303.261719 227.53125 302.472656 L 226.976562 301.777344 C 225.128906 299.4375 223.394531 297.027344 221.734375 294.554688 L 221.304688 293.917969 C 212.3125 280.558594 205.664062 263.984375 204.523438 247.824219 C 203.964844 238.347656 203.796875 228.464844 205.632812 219.117188 L 205.753906 218.496094 C 207.78125 208.164062 210.804688 197.738281 215.757812 188.40625 C 216.101562 187.75 216.421875 187.082031 216.742188 186.414062 C 219.34375 181.019531 222.445312 176.046875 226.117188 171.320312 C 226.679688 170.585938 227.214844 169.832031 227.753906 169.078125 C 229.570312 166.574219 231.558594 164.230469 233.648438 161.953125 C 234.28125 161.261719 234.28125 161.261719 234.894531 160.441406 L 235.449219 159.78125 L 236.046875 159.78125 L 236.261719 159.269531 C 236.722656 158.449219 237.273438 157.898438 237.949219 157.246094 L 238.644531 156.566406 L 239.328125 155.90625 C 239.722656 155.507812 240.121094 155.109375 240.519531 154.710938 C 234.074219 157.328125 234.074219 157.328125 227.996094 160.675781 L 227.414062 161.042969 C 225.007812 162.574219 222.722656 164.203125 220.542969 166.042969 L 219.527344 166.882812 C 217.402344 168.652344 215.460938 170.472656 213.683594 172.601562 L 213.019531 173.390625 C 210.839844 176.011719 208.777344 178.714844 206.910156 181.574219 C 206.425781 182.292969 205.894531 182.96875 205.335938 183.632812 C 204.644531 183.558594 204.644531 183.558594 203.84375 183.335938 C 200.160156 179.402344 198.726562 171.496094 197.527344 166.421875 C 195.214844 155.996094 194.789062 145.148438 197.945312 134.855469 C 200.585938 126.742188 204.996094 119.957031 211.308594 114.214844 C 214.9375 111.097656 218.902344 108.722656 223.226562 106.707031 L 223.972656 106.34375 C 225.976562 105.398438 227.988281 104.714844 230.121094 104.117188 L 231.042969 103.851562 C 238.535156 101.710938 247.152344 101.273438 254.789062 103.035156 C 255.300781 103.164062 255.8125 103.292969 256.320312 103.425781 L 257.1875 103.640625 C 264.636719 105.503906 271.664062 108.804688 277.492188 113.863281 L 278.210938 114.480469 C 278.972656 115.160156 279.730469 115.847656 280.472656 116.546875 C 280.761719 116.8125 281.046875 117.082031 281.339844 117.355469 C 286.078125 121.867188 289.574219 127.535156 292.101562 133.542969 L 292.375 134.183594 C 293.949219 137.960938 294.78125 141.730469 295.382812 145.765625 C 296.925781 141.769531 296.976562 137.59375 296.96875 133.363281 C 296.964844 132.578125 296.972656 131.796875 296.980469 131.011719 C 296.996094 126.816406 296.5625 122.761719 295.457031 118.707031 C 295.214844 117.761719 295.074219 116.972656 295.007812 115.988281 C 295.382812 115.054688 295.382812 115.054688 295.835938 114.65625 C 298.054688 113.179688 300.429688 112.058594 302.835938 110.9375 L 303.515625 110.621094 C 314.660156 105.414062 326.367188 102.402344 338.617188 101.339844 L 339.550781 101.253906 C 343.195312 100.957031 346.847656 100.988281 350.5 100.988281 M 303.132812 177.671875 C 304.132812 178.679688 305.15625 179.664062 306.210938 180.617188 L 307.007812 181.339844 C 307.46875 181.757812 307.933594 182.167969 308.40625 182.570312 C 310.25 184.144531 311.957031 185.851562 313.667969 187.570312 C 314.183594 188.085938 314.703125 188.605469 315.21875 189.121094 C 316.921875 190.820312 318.578125 192.53125 320.128906 194.367188 L 320.90625 195.25 C 324.824219 199.789062 328.214844 204.730469 331.546875 209.707031 C 331.867188 210.1875 332.1875 210.660156 332.507812 211.136719 C 338.105469 219.398438 342.316406 228.5625 345.773438 237.902344 L 346.042969 238.617188 C 348.511719 245.117188 350.253906 251.984375 351.734375 258.773438 L 352.035156 258.773438 L 352.28125 257.746094 C 358.160156 233.660156 368.394531 211.117188 385.371094 192.699219 C 385.734375 192.304688 386.089844 191.902344 386.441406 191.496094 C 387.949219 189.730469 389.570312 188.082031 391.210938 186.441406 C 391.691406 185.960938 392.167969 185.480469 392.644531 185 C 394.128906 183.507812 395.589844 182.113281 397.355469 180.949219 C 397.863281 180.464844 398.363281 179.96875 398.847656 179.460938 C 399.34375 178.960938 399.839844 178.464844 400.335938 177.96875 C 392.332031 179.613281 384.714844 183.132812 377.476562 186.855469 C 376.675781 187.269531 375.867188 187.671875 375.058594 188.078125 C 367.726562 191.785156 360.984375 196.285156 354.472656 201.277344 L 353.910156 201.703125 L 353.421875 202.078125 C 352.882812 202.453125 352.328125 202.734375 351.734375 203.015625 L 351.28125 202.679688 C 349.789062 201.574219 348.289062 200.472656 346.792969 199.371094 C 346.363281 199.058594 345.9375 198.742188 345.511719 198.425781 C 339.066406 193.652344 332.15625 189.535156 324.945312 186.035156 C 324.269531 185.703125 323.59375 185.367188 322.917969 185.027344 C 313.382812 180.007812 313.382812 180.007812 303.132812 177.671875 "/><path style=" stroke:none;fill-rule:nonzero;fill:#ffffff;fill-opacity:1;" d="M 512.148438 267.71875 C 512.765625 267.773438 512.765625 267.773438 513.34375 268.015625 C 513.96875 268.640625 514.101562 268.949219 514.371094 269.769531 L 514.613281 270.496094 L 514.871094 271.296875 L 515.148438 272.144531 C 515.339844 272.75 515.535156 273.351562 515.730469 273.957031 C 516.015625 274.832031 516.308594 275.710938 516.609375 276.582031 C 518.320312 281.703125 519.34375 286.917969 520.332031 292.214844 L 520.460938 292.914062 C 520.828125 294.929688 521.109375 296.9375 521.191406 298.988281 L 521.226562 299.945312 L 521.261719 300.945312 L 521.300781 301.992188 C 521.390625 304.683594 521.449219 307.367188 521.394531 310.058594 L 521.382812 310.855469 C 521.3125 315.0625 520.894531 319.078125 520.070312 323.203125 C 519.90625 324.070312 519.75 324.941406 519.609375 325.8125 C 517.835938 336.019531 513.941406 348.390625 507.378906 356.570312 L 506.484375 356.871094 L 505.589844 356.273438 C 505.503906 355.382812 505.46875 354.539062 505.460938 353.644531 C 505.386719 350.851562 505.085938 348.121094 504.695312 345.351562 L 504.535156 344.203125 C 504.28125 342.3125 504.28125 342.3125 503.800781 340.472656 L 503.253906 341.378906 C 499.253906 347.9375 494.269531 354.097656 488.230469 358.886719 C 487.679688 359.328125 487.140625 359.78125 486.609375 360.246094 C 484.09375 362.441406 481.355469 364.222656 478.53125 365.992188 C 477.984375 366.335938 477.441406 366.679688 476.902344 367.027344 C 474.113281 368.753906 471.046875 369.941406 468.019531 371.183594 L 467.320312 371.472656 C 462.628906 373.398438 462.628906 373.398438 460.269531 373.269531 L 459.375 372.671875 C 459.542969 371.609375 459.824219 370.84375 460.363281 369.914062 C 461.078125 368.527344 461.484375 367.160156 461.835938 365.648438 L 461.980469 365.019531 C 462.316406 363.5 462.503906 361.992188 462.65625 360.449219 C 455.453125 362.496094 448.582031 364.75 441.78125 367.902344 L 441.089844 368.21875 C 434.382812 371.324219 427.332031 375.613281 422.007812 380.78125 L 421.484375 381.285156 C 421.144531 381.613281 420.808594 381.945312 420.480469 382.28125 C 420.011719 382.738281 420.011719 382.738281 419.121094 383.40625 C 418.28125 383.378906 418.28125 383.378906 417.632812 383.109375 L 417.332031 382.8125 C 417.421875 380.835938 418.226562 379.253906 419.085938 377.5 L 419.53125 376.582031 C 422.386719 370.804688 425.964844 365.394531 430.453125 360.746094 L 431 360.175781 C 433.636719 357.4375 436.273438 354.878906 439.398438 352.695312 L 439.890625 352.347656 C 444.648438 349.007812 449.765625 346.203125 454.824219 343.351562 C 461.367188 339.664062 467.644531 335.699219 473.6875 331.226562 L 474.304688 330.773438 C 481.667969 325.359375 489.050781 319.46875 494.484375 312.050781 C 494.859375 311.550781 495.238281 311.054688 495.625 310.570312 C 499.363281 305.761719 502.464844 300.265625 504.730469 294.617188 C 504.910156 294.164062 505.09375 293.714844 505.28125 293.265625 C 508.167969 286.367188 509.863281 279.242188 510.769531 271.839844 L 510.851562 271.207031 C 510.921875 270.640625 510.988281 270.070312 511.054688 269.503906 C 511.253906 268.613281 511.253906 268.613281 511.683594 268.039062 Z M 512.148438 267.71875 "/><path style=" stroke:none;fill-rule:nonzero;fill:#ffffff;fill-opacity:1;" d="M 191.023438 268.015625 C 191.523438 268.101562 192.019531 268.199219 192.515625 268.3125 L 192.648438 269.03125 C 192.753906 269.605469 192.859375 270.175781 192.96875 270.746094 C 193.25 272.214844 193.515625 273.683594 193.773438 275.15625 C 195.144531 282.824219 197.226562 290.167969 200.566406 297.238281 L 200.875 297.894531 C 201.539062 299.28125 202.230469 300.652344 202.949219 302.007812 L 203.503906 303.050781 C 205.722656 307.074219 208.40625 310.773438 211.421875 314.234375 C 212.160156 315.085938 212.867188 315.960938 213.574219 316.839844 C 222.257812 327.496094 235.4375 335.351562 247.21875 342.152344 C 250.164062 343.855469 253.101562 345.582031 256.023438 347.328125 L 256.847656 347.820312 C 260.402344 349.953125 263.816406 352.191406 267.054688 354.78125 L 267.578125 355.199219 C 275.984375 361.984375 282.109375 370.796875 286.289062 380.71875 C 286.4375 381.320312 286.4375 381.320312 286.316406 381.996094 L 286.140625 382.511719 C 285.484375 382.730469 285.484375 382.730469 284.648438 382.8125 C 283.933594 382.367188 283.933594 382.367188 283.175781 381.691406 L 282.304688 380.941406 L 281.84375 380.535156 C 277.703125 376.96875 273.164062 373.921875 268.449219 371.179688 C 268.007812 370.914062 267.570312 370.644531 267.136719 370.367188 C 264.183594 368.53125 260.957031 367.238281 257.761719 365.878906 C 257.09375 365.59375 256.429688 365.300781 255.765625 365.003906 C 252.046875 363.402344 248.078125 362.421875 244.183594 361.328125 C 243.253906 361.058594 242.332031 360.761719 241.414062 360.449219 C 241.636719 363.601562 242.535156 366.382812 243.601562 369.339844 L 243.921875 370.242188 L 244.21875 371.050781 C 244.394531 371.777344 244.394531 371.777344 244.292969 372.453125 C 244.097656 372.972656 244.097656 372.972656 243.800781 373.269531 C 241.496094 373.519531 239.667969 372.726562 237.554688 371.871094 L 236.449219 371.429688 C 231.28125 369.332031 226.1875 366.820312 221.675781 363.523438 C 221.308594 363.253906 220.9375 362.992188 220.566406 362.730469 C 217.226562 360.390625 214.332031 357.632812 211.449219 354.765625 L 210.910156 354.230469 C 207.636719 350.980469 204.910156 347.507812 202.316406 343.695312 L 201.796875 342.945312 L 201.308594 342.226562 L 200.875 341.59375 L 200.566406 341.066406 L 200.566406 340.472656 L 199.96875 340.472656 C 199.335938 345.734375 198.734375 350.976562 198.476562 356.273438 L 197.285156 356.871094 C 196.148438 355.816406 195.332031 354.75 194.582031 353.386719 L 194.246094 352.773438 C 187.699219 340.6875 182.957031 326.53125 182.914062 312.691406 L 182.910156 312.085938 C 182.90625 311.03125 182.902344 309.972656 182.902344 308.914062 C 182.898438 308.054688 182.894531 307.199219 182.890625 306.339844 C 182.847656 301.160156 182.960938 296.09375 183.867188 290.976562 L 183.992188 290.269531 C 184.269531 288.75 184.589844 287.242188 184.929688 285.738281 L 185.082031 285.0625 C 185.828125 281.746094 186.722656 278.503906 187.800781 275.285156 L 188.164062 274.191406 C 189.929688 269.113281 189.929688 269.113281 191.023438 268.015625 "/><path style=" stroke:none;fill-rule:nonzero;fill:#ffffff;fill-opacity:1;" d="M 304.027344 439.164062 C 304.6875 439.132812 305.347656 439.125 306.003906 439.125 L 306.601562 439.125 C 307.019531 439.125 307.4375 439.125 307.855469 439.125 C 308.5 439.128906 309.140625 439.125 309.78125 439.125 C 310.1875 439.125 310.59375 439.125 311 439.125 L 312.125 439.125 L 312.972656 439.164062 L 313.273438 439.460938 C 313.308594 440.039062 313.324219 440.617188 313.332031 441.195312 L 313.351562 442.316406 L 313.367188 443.535156 L 313.386719 444.777344 C 313.402344 445.871094 313.417969 446.960938 313.429688 448.054688 C 313.445312 449.164062 313.460938 450.277344 313.480469 451.390625 C 313.511719 453.578125 313.542969 455.761719 313.570312 457.949219 L 313.949219 457.542969 C 314.523438 456.925781 315.101562 456.308594 315.675781 455.695312 L 316.269531 455.058594 C 317.53125 453.710938 318.816406 452.386719 320.128906 451.089844 C 321.300781 449.933594 322.421875 448.757812 323.488281 447.5 C 324.367188 446.511719 325.324219 445.597656 326.265625 444.664062 C 327.078125 443.84375 327.828125 442.988281 328.582031 442.113281 C 329.394531 441.1875 330.222656 440.261719 331.164062 439.460938 C 332.148438 439.132812 332.871094 439.128906 333.910156 439.128906 L 335.066406 439.128906 L 336.320312 439.136719 L 337.597656 439.136719 C 338.71875 439.136719 339.84375 439.140625 340.964844 439.144531 C 342.109375 439.148438 343.253906 439.148438 344.398438 439.148438 C 346.648438 439.152344 348.894531 439.15625 351.140625 439.164062 C 353.941406 447.492188 356.644531 455.851562 359.324219 464.222656 L 359.613281 465.132812 C 359.699219 465.394531 359.78125 465.65625 359.867188 465.925781 C 360.039062 466.449219 360.207031 466.96875 360.382812 467.492188 C 361.378906 465.136719 362.191406 462.734375 362.988281 460.308594 C 363.21875 459.609375 363.453125 458.914062 363.683594 458.214844 C 364.257812 456.488281 364.828125 454.757812 365.398438 453.03125 C 365.878906 451.578125 366.363281 450.125 366.84375 448.671875 C 367.066406 448 367.289062 447.324219 367.507812 446.652344 L 367.929688 445.390625 L 368.289062 444.296875 C 368.894531 442.570312 369.566406 440.871094 370.222656 439.164062 L 378.871094 439.164062 C 379.875 441.847656 379.875 441.847656 380.246094 442.980469 L 380.5 443.757812 L 380.769531 444.582031 L 381.058594 445.460938 C 381.367188 446.40625 381.671875 447.351562 381.980469 448.296875 L 382.300781 449.269531 C 383.921875 454.226562 385.503906 459.195312 387.054688 464.175781 L 387.269531 464.855469 C 387.398438 465.269531 387.527344 465.6875 387.65625 466.101562 C 387.894531 467.019531 387.894531 467.019531 388.410156 467.789062 C 388.910156 466.304688 389.40625 464.820312 389.902344 463.335938 L 390.136719 462.632812 C 391.1875 459.492188 392.222656 456.34375 393.246094 453.195312 L 393.566406 452.207031 C 394.09375 450.589844 394.617188 448.976562 395.140625 447.359375 L 395.726562 445.554688 L 395.988281 444.734375 C 396.570312 442.945312 397.234375 441.203125 397.953125 439.460938 C 399.21875 439.394531 400.488281 439.335938 401.753906 439.277344 L 402.84375 439.21875 L 403.890625 439.171875 L 404.855469 439.125 C 405.726562 439.164062 406.144531 439.351562 406.898438 439.761719 L 406.742188 440.230469 L 404.445312 447.261719 C 402.941406 451.863281 401.441406 456.472656 399.945312 461.078125 L 399.6875 461.871094 C 398.382812 465.898438 397.054688 469.914062 395.703125 473.925781 C 395.027344 475.945312 394.371094 477.96875 393.777344 480.011719 C 391.894531 480.453125 390 480.378906 388.074219 480.386719 C 387.5 480.394531 387.5 480.394531 386.910156 480.40625 L 385.800781 480.410156 L 384.78125 480.417969 L 383.9375 480.3125 C 383.328125 479.835938 383.058594 479.457031 382.753906 478.742188 L 382.5 477.9375 L 382.207031 477.019531 L 381.898438 476.023438 L 381.566406 474.984375 C 381.273438 474.054688 380.980469 473.128906 380.691406 472.203125 C 380.328125 471.054688 379.964844 469.910156 379.601562 468.769531 L 379.238281 467.628906 C 379.058594 467.058594 378.878906 466.492188 378.699219 465.921875 C 377.722656 462.859375 376.726562 459.804688 375.699219 456.757812 L 375.492188 456.132812 C 375.128906 455.046875 374.761719 453.964844 374.398438 452.878906 C 373.421875 455.1875 372.621094 457.546875 371.839844 459.925781 C 371.453125 461.097656 371.066406 462.269531 370.675781 463.441406 L 370.425781 464.195312 C 369.457031 467.105469 368.476562 470.015625 367.488281 472.917969 C 367.285156 473.511719 367.085938 474.105469 366.882812 474.699219 C 366.601562 475.53125 366.320312 476.363281 366.035156 477.195312 L 365.777344 477.957031 C 365.1875 479.679688 365.1875 479.679688 364.855469 480.011719 C 362.050781 480.433594 359.21875 480.40625 356.402344 480.160156 L 355.441406 480.078125 L 354.71875 480.011719 L 352.660156 473.835938 C 351.871094 471.476562 351.085938 469.113281 350.292969 466.753906 C 348.40625 461.109375 346.542969 455.460938 344.691406 449.804688 L 344.328125 448.699219 C 343.984375 447.652344 343.644531 446.605469 343.300781 445.558594 L 342.988281 444.609375 C 342.496094 443.097656 342.019531 441.589844 341.597656 440.058594 C 340.070312 441.28125 338.75 442.644531 337.441406 444.09375 C 336.683594 444.933594 335.917969 445.753906 335.113281 446.542969 C 334.414062 447.230469 333.757812 447.941406 333.121094 448.6875 C 332.210938 449.738281 331.25 450.710938 330.257812 451.6875 C 329.503906 452.457031 328.804688 453.265625 328.101562 454.085938 C 327.410156 454.863281 326.667969 455.582031 325.910156 456.296875 C 325.425781 456.777344 325.425781 456.777344 325.199219 457.652344 C 325.46875 458.15625 325.46875 458.15625 325.914062 458.644531 L 326.398438 459.226562 L 326.933594 459.851562 C 327.292969 460.285156 327.65625 460.71875 328.019531 461.152344 L 328.566406 461.804688 C 329.253906 462.640625 329.910156 463.496094 330.566406 464.359375 C 331.667969 465.804688 332.804688 467.222656 333.957031 468.628906 C 335.429688 470.421875 336.839844 472.257812 338.21875 474.125 C 339.40625 475.722656 340.664062 477.242188 341.964844 478.742188 L 342.492188 479.417969 L 342.492188 480.011719 C 333.253906 480.671875 333.253906 480.671875 330.9375 479.652344 C 329.785156 478.769531 329.09375 477.65625 328.453125 476.367188 C 328.070312 475.621094 327.550781 475.023438 327.007812 474.386719 L 326.449219 473.679688 C 325.59375 472.601562 324.726562 471.539062 323.855469 470.472656 C 322.5625 468.882812 321.277344 467.285156 320.007812 465.675781 C 319.578125 465.160156 319.125 464.671875 318.640625 464.210938 C 317.34375 465.464844 316.109375 466.777344 314.933594 468.148438 C 314.464844 468.683594 314.464844 468.683594 313.996094 469.015625 L 313.570312 469.578125 C 313.472656 470.363281 313.421875 471.15625 313.417969 471.949219 L 313.402344 472.644531 C 313.386719 473.382812 313.375 474.117188 313.367188 474.851562 C 313.355469 475.351562 313.34375 475.847656 313.335938 476.347656 C 313.308594 477.570312 313.289062 478.792969 313.273438 480.011719 C 312.015625 480.074219 310.761719 480.128906 309.507812 480.179688 L 308.433594 480.230469 L 307.390625 480.277344 L 306.433594 480.316406 C 305.5 480.3125 304.648438 480.175781 303.730469 480.011719 C 303.722656 474.730469 303.71875 469.449219 303.714844 464.167969 C 303.714844 461.714844 303.710938 459.261719 303.707031 456.808594 C 303.707031 454.671875 303.703125 452.535156 303.703125 450.398438 C 303.703125 449.269531 303.703125 448.136719 303.699219 447.003906 C 303.699219 445.941406 303.695312 444.875 303.695312 443.8125 C 303.695312 443.230469 303.695312 442.652344 303.695312 442.074219 L 303.695312 440.132812 L 303.730469 439.460938 Z M 304.027344 439.164062 "/><path style=" stroke:none;fill-rule:nonzero;fill:#ffffff;fill-opacity:1;" d="M 450.726562 248.039062 C 451.382812 248.269531 451.382812 248.269531 451.921875 248.636719 C 452.21875 249.230469 452.21875 249.230469 452.21875 250.054688 C 452.054688 252.679688 451.585938 255.078125 450.859375 257.597656 L 450.535156 258.734375 C 446.695312 271.992188 439.460938 283.972656 429.597656 293.664062 C 424.515625 298.382812 418.628906 302.257812 412.5625 305.585938 L 411.566406 306.132812 L 410.625 306.628906 L 409.792969 307.066406 C 408.863281 307.421875 408.183594 307.472656 407.195312 307.375 L 406.597656 306.777344 C 406.148438 300.035156 409.949219 291.714844 412.765625 285.800781 C 418.355469 274.433594 426.59375 263.441406 437.011719 256.089844 L 437.597656 255.671875 C 438.804688 254.820312 440.023438 253.984375 441.25 253.164062 C 441.707031 252.859375 442.164062 252.546875 442.613281 252.234375 C 444.339844 251.074219 446.160156 250.128906 448.027344 249.210938 L 448.773438 248.832031 L 449.488281 248.492188 L 450.125 248.183594 Z M 450.726562 248.039062 "/><path style=" stroke:none;fill-rule:nonzero;fill:#ffffff;fill-opacity:1;" d="M 253.386719 248.246094 C 254.785156 248.355469 255.605469 248.792969 256.789062 249.511719 L 257.417969 249.878906 C 258.050781 250.253906 258.679688 250.636719 259.304688 251.019531 L 259.847656 251.351562 C 263.976562 253.894531 268.007812 256.625 271.527344 259.964844 C 271.925781 260.316406 272.320312 260.664062 272.722656 261.007812 L 273.914062 262.050781 L 274.652344 262.695312 C 276.226562 264.085938 277.636719 265.511719 278.984375 267.121094 L 279.746094 267.996094 C 281.652344 270.1875 283.34375 272.445312 284.945312 274.875 L 285.277344 275.375 C 288.015625 279.488281 290.421875 283.757812 292.402344 288.292969 L 292.855469 289.324219 C 295.101562 294.691406 297.585938 301.167969 297.171875 307.074219 L 296.871094 307.375 C 294.585938 307.3125 293.039062 306.617188 291.078125 305.492188 L 290.214844 305.007812 C 284.484375 301.753906 279.253906 297.933594 274.511719 293.359375 L 273.878906 292.757812 C 270.679688 289.695312 267.8125 286.550781 265.265625 282.925781 L 264.804688 282.265625 C 262.542969 279.035156 260.527344 275.691406 258.707031 272.191406 L 258.421875 271.640625 C 255.195312 265.371094 251.722656 257.007812 251.832031 249.863281 L 251.839844 249.160156 L 251.847656 248.636719 C 252.445312 248.335938 252.445312 248.335938 253.386719 248.246094 M 262.976562 439.035156 C 263.660156 439.121094 263.660156 439.121094 264.371094 439.460938 C 265.589844 440.523438 266.5625 441.820312 267.539062 443.097656 C 268.09375 443.820312 268.671875 444.519531 269.253906 445.222656 L 269.894531 446.007812 C 270.832031 447.160156 271.777344 448.304688 272.722656 449.453125 C 274.074219 451.09375 275.425781 452.742188 276.773438 454.390625 C 277.875 455.734375 278.980469 457.070312 280.082031 458.410156 C 281.507812 460.140625 282.929688 461.878906 284.351562 463.613281 L 284.648438 439.460938 C 287.40625 438.082031 290.808594 439.164062 293.890625 439.164062 L 293.890625 480.011719 L 286.140625 480.011719 C 284.679688 478.90625 284.300781 478.507812 283.457031 477.03125 C 282.949219 476.34375 282.40625 475.683594 281.871094 475.019531 C 281.59375 474.664062 281.316406 474.304688 281.039062 473.949219 C 280.023438 472.652344 278.949219 471.410156 277.871094 470.164062 C 276.824219 468.953125 275.816406 467.71875 274.824219 466.460938 C 274.109375 465.570312 273.367188 464.703125 272.628906 463.835938 C 271.304688 462.289062 270.03125 460.703125 268.78125 459.09375 C 267.386719 457.074219 267.386719 457.074219 265.566406 455.5625 L 265.566406 480.3125 C 256.917969 480.3125 256.917969 480.3125 256.320312 480.011719 L 256.320312 439.460938 C 259.648438 439.273438 259.648438 439.273438 262.976562 439.035156 "/><path style=" stroke:none;fill-rule:nonzero;fill:#ffffff;fill-opacity:1;" d="M 441.894531 440.449219 C 443.609375 441.207031 445.078125 442.191406 446.554688 443.339844 L 447.117188 443.753906 C 448.753906 445.035156 449.886719 446.683594 451.027344 448.40625 L 451.53125 449.171875 C 453.371094 452.214844 454.03125 455.601562 454.148438 459.117188 C 454.1875 463.132812 453.445312 466.671875 451.527344 470.242188 C 449.71875 473.21875 447.25 475.996094 444.195312 477.71875 C 439.101562 480.410156 434.410156 480.828125 428.699219 480.660156 C 424.949219 480.457031 421.382812 479.039062 418.226562 477.03125 C 417.148438 476.207031 416.195312 475.316406 415.246094 474.347656 L 414.675781 473.839844 C 412.566406 471.925781 411.253906 469.433594 410.382812 466.746094 C 409.058594 461.984375 409.003906 457.65625 410.175781 452.878906 C 410.492188 451.925781 410.882812 451.074219 411.371094 450.195312 L 411.75 449.476562 C 412.863281 447.488281 414.25 445.855469 415.84375 444.234375 L 416.320312 443.730469 C 418.847656 441.328125 422.328125 439.945312 425.644531 439.070312 C 431.203125 437.839844 436.621094 438.429688 441.894531 440.449219 M 422.996094 449.300781 C 421.101562 450.867188 420.074219 453.347656 419.121094 455.5625 C 418.457031 457.941406 418.589844 460.796875 419.015625 463.210938 C 419.71875 465.726562 420.898438 467.652344 422.644531 469.578125 C 424.203125 471.082031 426.027344 471.878906 428.066406 472.558594 C 430.664062 473.207031 433.359375 473.039062 435.929688 472.371094 C 437.671875 471.820312 438.960938 471.117188 440.292969 469.875 L 441.074219 469.1875 C 442.582031 467.480469 443.957031 465.566406 444.464844 463.316406 C 444.933594 460.171875 444.910156 457.148438 443.734375 454.167969 C 442.828125 452.164062 441.800781 450.316406 439.992188 449.003906 C 437.710938 447.507812 435.347656 446.519531 432.625 446.238281 C 429.015625 446.113281 425.925781 447.222656 422.996094 449.300781 "/><path style=" stroke:none;fill-rule:nonzero;fill:#ffffff;fill-opacity:1;" d="M 490.308594 441.773438 C 492.277344 442.914062 493.675781 444.152344 494.851562 446.113281 C 496.515625 449.203125 497.074219 451.832031 497.019531 455.347656 C 496.859375 457.703125 496.203125 459.769531 494.984375 461.789062 C 493.441406 464.078125 491.636719 465.597656 489.191406 466.894531 L 488.59375 466.894531 C 490.652344 469.917969 492.714844 472.933594 494.84375 475.902344 C 495.796875 477.242188 496.683594 478.609375 497.539062 480.011719 C 494.304688 480.445312 490.941406 480.882812 487.699219 480.3125 C 486.859375 479.859375 486.40625 479.445312 485.816406 478.699219 C 485.230469 477.738281 484.710938 476.761719 484.226562 475.742188 C 483.515625 474.335938 482.574219 473.082031 481.664062 471.796875 C 481.335938 471.316406 481.011719 470.839844 480.6875 470.359375 C 480.210938 469.632812 480.210938 469.632812 479.648438 468.980469 C 479.011719 468.957031 478.371094 468.949219 477.730469 468.953125 L 476.667969 468.953125 L 475.308594 468.960938 L 471.003906 468.980469 L 470.703125 480.3125 C 468.582031 480.320312 468.582031 480.320312 466.417969 480.332031 L 465.066406 480.339844 L 464.007812 480.339844 L 462.917969 480.34375 C 462.058594 480.3125 462.058594 480.3125 461.460938 480.011719 L 461.460938 439.460938 C 484.78125 438.988281 484.78125 438.988281 490.308594 441.773438 M 470.703125 446.917969 L 470.703125 461.230469 L 475.886719 461.304688 L 477.5 461.335938 C 479.765625 461.363281 481.757812 461.363281 483.847656 460.375 C 485.230469 459.554688 486.210938 458.707031 487.085938 457.351562 C 487.691406 455.652344 487.582031 453.757812 487.402344 451.984375 C 487.089844 450.804688 486.5625 450 485.761719 449.089844 C 484.753906 448.128906 483.679688 447.515625 482.34375 447.089844 C 480.234375 446.683594 478.042969 446.828125 475.902344 446.859375 Z M 470.703125 446.917969 "/><path style=" stroke:none;fill-rule:nonzero;fill:#ffffff;fill-opacity:1;" d="M 167.46875 439.164062 C 168.128906 439.136719 168.792969 439.132812 169.453125 439.136719 L 170.054688 439.136719 C 170.6875 439.136719 171.324219 439.140625 171.960938 439.144531 C 172.390625 439.148438 172.816406 439.148438 173.246094 439.148438 C 174.304688 439.152344 175.359375 439.15625 176.414062 439.164062 C 176.667969 440.265625 176.746094 441.28125 176.746094 442.410156 L 176.746094 443.460938 L 176.742188 444.582031 L 176.738281 445.742188 C 176.738281 446.753906 176.734375 447.761719 176.730469 448.773438 C 176.730469 449.808594 176.726562 450.839844 176.726562 451.875 C 176.722656 453.898438 176.71875 455.925781 176.710938 457.949219 C 177.578125 457.265625 178.363281 456.625 179.058594 455.769531 C 180.148438 454.488281 181.332031 453.316406 182.527344 452.132812 C 183.847656 450.828125 185.132812 449.515625 186.332031 448.09375 C 187.152344 447.171875 188.042969 446.316406 188.921875 445.449219 C 189.722656 444.652344 190.492188 443.84375 191.226562 442.984375 L 191.722656 442.421875 C 192.070312 442.015625 192.402344 441.605469 192.726562 441.183594 C 193.3125 440.480469 193.835938 439.964844 194.601562 439.460938 C 195.773438 439.167969 196.902344 439.136719 198.109375 439.15625 C 198.886719 439.164062 199.660156 439.160156 200.4375 439.152344 C 201.972656 439.144531 203.503906 439.148438 205.039062 439.164062 C 204.527344 440.257812 203.917969 440.933594 203.042969 441.773438 C 202.125 442.671875 201.230469 443.570312 200.398438 444.550781 C 199.433594 445.675781 198.394531 446.707031 197.339844 447.746094 C 196.5625 448.535156 195.84375 449.367188 195.121094 450.207031 C 194.386719 451.035156 193.59375 451.800781 192.804688 452.578125 C 192.035156 453.359375 191.324219 454.183594 190.609375 455.015625 C 189.980469 455.730469 189.320312 456.394531 188.636719 457.054688 C 189.175781 458.292969 189.992188 459.320312 190.800781 460.390625 L 191.277344 461.023438 C 192.613281 462.785156 194.015625 464.492188 195.429688 466.191406 C 196.753906 467.78125 198 469.414062 199.226562 471.078125 C 200.472656 472.757812 201.78125 474.378906 203.113281 475.992188 C 204.109375 477.199219 205.046875 478.425781 205.933594 479.714844 L 205.933594 480.011719 C 204.496094 480.128906 203.058594 480.226562 201.621094 480.304688 C 201.132812 480.332031 200.644531 480.367188 200.15625 480.410156 C 196.941406 480.671875 196.941406 480.671875 195.496094 480.3125 C 194.296875 479.496094 193.589844 478.539062 192.8125 477.328125 C 192.527344 476.96875 192.242188 476.613281 191.949219 476.261719 C 191.699219 475.941406 191.453125 475.621094 191.210938 475.296875 C 190.007812 473.746094 188.765625 472.238281 187.488281 470.746094 C 186.300781 469.351562 185.167969 467.917969 184.050781 466.46875 C 183.433594 465.671875 182.820312 464.898438 182.078125 464.210938 C 180.558594 465.699219 179.085938 467.207031 177.699219 468.824219 C 177.480469 469.082031 177.25 469.335938 177.007812 469.578125 C 176.636719 471.796875 176.613281 474.039062 176.542969 476.285156 L 176.503906 477.460938 C 176.472656 478.410156 176.441406 479.359375 176.414062 480.3125 C 175.191406 480.320312 173.972656 480.324219 172.75 480.328125 C 172.335938 480.328125 171.921875 480.332031 171.503906 480.332031 C 170.910156 480.335938 170.3125 480.339844 169.714844 480.339844 L 168.628906 480.34375 C 167.765625 480.3125 167.765625 480.3125 167.167969 480.011719 C 167.164062 474.730469 167.15625 469.449219 167.15625 464.167969 C 167.152344 461.714844 167.152344 459.261719 167.148438 456.808594 C 167.144531 454.671875 167.140625 452.535156 167.140625 450.398438 C 167.140625 449.269531 167.140625 448.136719 167.136719 447.003906 C 167.136719 445.941406 167.136719 444.875 167.136719 443.8125 C 167.136719 443.230469 167.132812 442.652344 167.132812 442.074219 L 167.132812 440.132812 L 167.167969 439.460938 Z M 504.695312 439.164062 L 513.9375 439.164062 L 513.9375 458.246094 L 514.535156 458.246094 L 514.773438 457.714844 C 515.148438 457.027344 515.535156 456.585938 516.09375 456.042969 L 516.667969 455.480469 L 517.273438 454.894531 C 518.628906 453.5625 519.949219 452.230469 521.175781 450.777344 C 521.996094 449.851562 522.886719 448.996094 523.769531 448.125 C 524.527344 447.375 525.253906 446.613281 525.941406 445.796875 C 527.207031 444.304688 528.625 442.953125 530.019531 441.582031 L 530.597656 441.011719 L 531.121094 440.5 C 531.5625 440.066406 531.5625 440.066406 531.828125 439.460938 L 542.265625 439.460938 C 541.066406 441.058594 539.972656 442.429688 538.558594 443.785156 C 537.332031 444.96875 536.164062 446.207031 535.050781 447.496094 C 534.136719 448.539062 533.175781 449.542969 532.21875 450.550781 L 530.96875 451.878906 C 530.195312 452.703125 529.414062 453.519531 528.625 454.328125 L 527.636719 455.359375 L 527.167969 455.828125 C 526.699219 456.304688 526.699219 456.304688 526.164062 457.054688 C 526.242188 457.734375 526.40625 458.164062 526.785156 458.734375 L 527.191406 459.21875 L 527.65625 459.773438 L 528.160156 460.371094 C 528.515625 460.800781 528.871094 461.230469 529.222656 461.660156 L 529.78125 462.335938 C 530.683594 463.441406 531.554688 464.570312 532.425781 465.703125 C 533.753906 467.421875 535.109375 469.125 536.488281 470.808594 C 538.929688 473.789062 541.226562 476.875 543.457031 480.011719 C 541.085938 480.296875 538.707031 480.378906 536.320312 480.421875 L 535.410156 480.457031 C 534.589844 480.46875 533.832031 480.449219 533.023438 480.3125 C 532.167969 479.675781 532.167969 479.675781 531.53125 478.820312 L 530.753906 477.933594 C 530.484375 477.613281 530.214844 477.296875 529.945312 476.976562 L 529.515625 476.460938 C 528.273438 474.980469 527.0625 473.476562 525.867188 471.960938 C 524.386719 470.105469 522.894531 468.261719 521.386719 466.429688 C 521.015625 465.976562 520.664062 465.507812 520.328125 465.027344 L 519.902344 464.507812 L 519.007812 464.210938 L 518.839844 464.710938 C 518.410156 465.402344 518.410156 465.402344 517.449219 466.066406 C 516.054688 467.050781 514.972656 468.007812 514.238281 469.578125 C 513.480469 472.925781 513.789062 476.609375 513.9375 480.011719 C 512.621094 480.070312 511.304688 480.125 509.988281 480.179688 L 508.855469 480.230469 L 507.765625 480.277344 L 506.761719 480.316406 C 505.890625 480.3125 505.890625 480.3125 504.695312 480.011719 Z M 219.050781 439.164062 L 219.054688 440.078125 C 219.074219 442.933594 219.09375 445.789062 219.121094 448.644531 C 219.132812 450.113281 219.148438 451.578125 219.152344 453.046875 C 219.164062 454.464844 219.175781 455.886719 219.1875 457.304688 C 219.195312 457.84375 219.199219 458.378906 219.199219 458.917969 C 219.191406 464.203125 219.191406 464.203125 220.933594 469.128906 C 221.675781 470.171875 222.445312 470.953125 223.523438 471.664062 C 225.425781 472.523438 227.339844 472.714844 229.410156 472.664062 C 231.292969 472.460938 232.898438 471.816406 234.519531 470.863281 C 235.746094 469.527344 236.539062 468.078125 236.953125 466.308594 C 237.433594 463.816406 237.347656 461.265625 237.363281 458.738281 C 237.367188 458.179688 237.375 457.625 237.378906 457.066406 C 237.394531 455.609375 237.40625 454.152344 237.417969 452.695312 C 237.429688 451.203125 237.445312 449.710938 237.460938 448.21875 C 237.488281 445.300781 237.515625 442.382812 237.539062 439.460938 L 246.78125 439.164062 C 246.800781 442.511719 246.816406 445.863281 246.828125 449.210938 C 246.832031 450.765625 246.839844 452.324219 246.847656 453.878906 C 246.859375 455.382812 246.863281 456.886719 246.867188 458.390625 C 246.867188 458.960938 246.871094 459.53125 246.875 460.101562 C 246.910156 464.398438 246.746094 468.664062 244.695312 472.558594 C 242.980469 475.308594 241.085938 477.359375 238.226562 478.894531 C 236.363281 479.777344 234.492188 480.25 232.46875 480.609375 L 231.832031 480.726562 C 227.792969 481.355469 223.359375 480.894531 219.515625 479.492188 C 217.117188 478.410156 215.035156 476.851562 213.351562 474.832031 C 211.746094 472.597656 210.667969 470.289062 210.203125 467.578125 L 210.085938 466.921875 C 209.664062 464.210938 209.695312 461.503906 209.71875 458.769531 C 209.722656 458.207031 209.722656 457.644531 209.722656 457.085938 C 209.726562 455.625 209.738281 454.167969 209.746094 452.710938 C 209.753906 451.214844 209.757812 449.71875 209.765625 448.222656 C 209.773438 445.304688 209.789062 442.382812 209.808594 439.460938 C 212.890625 439.28125 215.960938 439.109375 219.050781 439.164062 M 156.328125 440.617188 C 157.207031 441.039062 158.011719 441.605469 158.820312 442.144531 L 156.136719 449.003906 C 154.824219 448.742188 153.722656 448.347656 152.503906 447.828125 C 148.960938 446.386719 145.675781 446.007812 141.832031 446.414062 C 140.640625 446.613281 139.78125 446.894531 138.714844 447.476562 C 137.722656 448.265625 137.722656 448.265625 137.054688 449.300781 C 136.914062 450.222656 136.859375 451.070312 137.054688 451.984375 C 137.628906 452.820312 138.097656 453.390625 138.976562 453.90625 C 141.480469 454.90625 144.015625 455.570312 146.632812 456.179688 C 150.6875 457.125 154.558594 458.042969 157.699219 460.953125 C 158.871094 462.179688 159.734375 463.320312 160.171875 464.976562 C 160.644531 467.441406 160.742188 469.582031 160.035156 472.015625 C 159.210938 474.1875 157.828125 475.863281 156.0625 477.351562 C 153.460938 479.175781 150.640625 480.234375 147.492188 480.609375 C 141.074219 481.035156 134.964844 480.621094 129.089844 477.890625 C 128.109375 477.328125 128.109375 477.328125 126.617188 475.839844 L 129.601562 469.28125 C 130.691406 469.714844 131.605469 470.152344 132.621094 470.714844 C 136.445312 472.621094 140.480469 473.441406 144.746094 473.261719 C 146.667969 473.128906 148.238281 472.726562 149.875 471.703125 C 150.546875 470.992188 150.84375 470.527344 151.070312 469.578125 C 151.042969 468.4375 150.800781 467.835938 150.210938 466.855469 C 149.304688 465.878906 148.289062 465.511719 147.039062 465.105469 C 145.042969 464.53125 143.03125 464.011719 141.019531 463.492188 C 137.226562 462.515625 133.226562 461.472656 130.195312 458.84375 C 128.953125 457.386719 127.988281 455.941406 127.511719 454.074219 C 127.265625 451.703125 127.148438 448.988281 127.980469 446.730469 C 128.984375 444.714844 130.316406 443.027344 132.097656 441.644531 C 139.167969 436.984375 148.734375 437.835938 156.328125 440.617188 M 573.765625 440.617188 C 574.644531 441.039062 575.445312 441.605469 576.257812 442.144531 L 573.574219 449.003906 C 572.261719 448.742188 571.171875 448.347656 569.957031 447.828125 C 566.457031 446.394531 563.074219 446.007812 559.289062 446.414062 C 558.101562 446.613281 557.21875 446.890625 556.148438 447.457031 C 555.332031 448.15625 554.898438 448.605469 554.488281 449.601562 C 554.355469 450.425781 554.347656 451.160156 554.488281 451.984375 C 554.882812 452.855469 554.882812 452.855469 555.683594 453.476562 C 558.257812 454.976562 561.351562 455.46875 564.222656 456.160156 C 568.34375 457.160156 572.195312 458.183594 575.34375 461.183594 C 576.445312 462.335938 577.175781 463.417969 577.597656 464.964844 C 578.097656 467.429688 578.175781 469.585938 577.46875 472.019531 C 576.632812 474.222656 575.230469 475.867188 573.433594 477.375 C 570.929688 479.203125 568.261719 480.097656 565.222656 480.609375 C 563.773438 480.734375 562.335938 480.753906 560.882812 480.742188 L 559.699219 480.734375 C 554.703125 480.648438 549.929688 479.835938 545.546875 477.328125 L 544.054688 475.839844 L 547.035156 469.28125 C 548.125 469.714844 549.039062 470.152344 550.054688 470.714844 C 553.878906 472.621094 557.917969 473.441406 562.179688 473.261719 C 564.109375 473.128906 565.683594 472.734375 567.3125 471.683594 C 568.089844 470.882812 568.089844 470.882812 568.503906 469.875 C 568.523438 468.847656 568.523438 468.847656 568.207031 467.789062 C 567.71875 466.984375 567.425781 466.5625 566.714844 466 C 564.5625 464.882812 562.171875 464.378906 559.828125 463.816406 C 550.726562 461.613281 550.726562 461.613281 547.605469 458.894531 C 546.347656 457.464844 545.433594 455.910156 544.949219 454.074219 C 544.582031 451.667969 544.59375 449.039062 545.414062 446.730469 C 546.417969 444.722656 547.746094 443.03125 549.515625 441.644531 C 556.558594 436.988281 566.210938 437.851562 573.765625 440.617188 "/></g></svg>